# Blender 4.5.1 LTS
# www.blender.org
mtllib player.mtl
o Cube
v -8.000000 0.004977 0.779364
v -8.000000 -0.004913 0.779364
v -8.000000 0.008375 -0.779364
v -8.000000 -0.008311 -0.779364
v 8.000000 -0.525276 0.906914
v 8.000000 0.525015 0.906914
v 8.000000 -0.525276 -0.906914
v 8.000000 0.525015 -0.906914
v -8.000000 0.000032 0.779364
v -8.000000 0.000032 -0.779364
v 8.000000 -0.000130 -0.906914
v 8.000000 -0.000130 0.906914
v -0.087935 -1.078623 -2.000000
v -0.087935 1.080775 -2.000000
v -0.084253 -1.216505 2.000000
v -0.084253 1.216505 2.000000
v -0.084253 0.000000 2.000000
v -0.087935 0.001076 -2.000000
v -4.014508 -0.767581 -1.740449
v -4.042126 0.865812 1.740449
v -4.042126 0.000052 1.740449
v -4.014508 0.769216 -1.740449
v -4.042127 -0.865709 1.740449
v -4.014508 0.000817 -1.740449
v -5.788997 -1.124201 -1.374705
v -5.788997 1.124294 1.374705
v -5.788997 0.000052 1.740449
v -5.788997 1.124294 -1.374705
v -5.788997 -1.124201 1.374705
v -5.788997 0.000052 -1.740449
v 3.954242 0.623564 -1.638595
v 3.990146 -0.702197 1.638595
v 3.954242 0.000469 -1.638595
v 3.990146 -0.628213 -1.638595
v 3.990146 0.701894 1.638595
v 3.990146 -0.000152 1.638595
v 5.927677 1.154049 -1.316276
v 5.927677 -1.154352 1.638595
v 5.927677 -0.000152 -1.638595
v 5.927677 -1.154352 -1.638595
v 5.927677 1.154049 1.369895
v 5.927677 -0.000152 1.638595
v -8.000000 -0.219771 0.000000
v -8.000000 0.278762 0.000000
v 8.000000 -1.069519 0.000000
v 6.823177 3.316440 0.000000
v 8.000000 0.000000 0.000000
v -8.000000 0.000000 0.000000
v -0.084253 2.000000 0.000000
v -0.084253 -2.000000 0.000000
v -4.042127 -2.000000 0.000000
v -4.042127 2.000000 0.000000
v -5.788997 -2.000000 0.000000
v -5.788997 2.000000 0.000000
v 3.990146 2.000000 0.000000
v 3.990146 -2.000000 0.000000
v 5.927677 3.304692 0.000000
v 5.927677 -2.000000 0.000000
v -8.000000 0.084329 -0.516174
v 8.000000 -0.486638 -0.553471
v -8.000000 0.000019 -0.516174
v -8.000000 -0.084290 -0.516174
v 8.000000 0.486595 -0.553471
v 8.000000 -0.000022 -0.871107
v -0.084253 2.000000 -1.000000
v -0.084253 -2.000000 -1.000000
v -4.042127 -2.000000 -1.000000
v -4.042127 2.000000 -1.000000
v -5.788997 -1.579708 -0.789856
v -5.788997 1.579718 -0.789856
v 3.990146 2.000000 -1.000000
v 3.990146 -2.000000 -1.000000
v 5.927677 2.000000 -0.372278
v 5.927677 -2.000000 -1.000000
v -8.000000 -0.084290 0.516174
v 8.000000 0.486595 0.553471
v 8.000000 -0.000022 0.871107
v -0.084253 2.000000 1.000000
v -0.084253 -2.000000 1.000000
v -4.042127 -2.000000 1.000000
v -4.042127 2.000000 1.000000
v -5.788997 -1.579708 0.789856
v -5.788997 1.579718 0.789856
v 3.990146 2.000000 1.000000
v 3.990146 -2.000000 1.000000
v 5.927677 2.000000 0.372278
v 5.927677 -2.000000 1.000000
v -8.000000 0.084329 0.516174
v 8.000000 -0.486638 0.553471
v -8.000000 0.000019 0.516174
vn -1.0000 -0.0000 -0.0000
vn 0.2864 0.1806 -0.9409
vn 1.0000 -0.0000 -0.0000
vn -0.3824 0.2870 0.8783
vn 0.5020 -0.6709 0.5458
vn -0.5180 0.7197 0.4622
vn -0.3824 -0.2870 0.8783
vn 0.3329 -0.0000 -0.9430
vn -0.0660 -0.0000 -0.9978
vn 0.0884 -0.0000 0.9961
vn 0.0737 0.6169 0.7836
vn -0.0540 -0.6711 0.7394
vn -0.0820 0.1891 -0.9785
vn -0.1544 -0.6326 0.7589
vn -0.0818 -0.1891 -0.9785
vn -0.0654 -0.0000 0.9979
vn -0.0540 0.6711 0.7394
vn -0.3827 -0.2877 -0.8779
vn -0.5180 -0.7197 0.4623
vn -0.3827 0.2877 -0.8779
vn -0.0892 -0.1800 0.9796
vn -0.1544 0.6327 0.7589
vn -0.0892 0.1800 0.9796
vn 0.0518 0.1431 0.9884
vn 0.1124 0.6028 0.7899
vn -0.0000 -0.0000 1.0000
vn 0.0886 0.0019 -0.9961
vn 0.0737 -0.6169 0.7836
vn 0.0891 -0.0000 -0.9960
vn 0.3329 -0.0000 0.9430
vn 0.4317 0.7743 0.4628
vn 0.2949 0.1510 0.9435
vn -0.0000 -0.0000 -1.0000
vn -0.0596 -0.5110 0.8575
vn 0.0563 0.1782 -0.9824
vn -0.0000 -1.0000 -0.0000
vn 0.0592 0.2341 -0.9704
vn -0.1312 0.7185 -0.6831
vn -0.1298 0.9653 -0.2267
vn -0.5767 -0.7517 -0.3199
vn -0.0000 1.0000 -0.0000
vn -0.1298 -0.9653 -0.2267
vn -0.5649 0.7466 -0.3514
vn 0.5081 -0.8064 -0.3026
vn 0.9336 0.2691 0.2366
vn 0.5020 -0.6709 -0.5458
vn -0.5181 0.7183 -0.4642
vn 0.0688 0.5788 -0.8126
vn -0.0503 -0.6274 -0.7771
vn -0.1386 -0.6102 -0.7800
vn -0.0504 0.6281 -0.7765
vn -0.5181 -0.7183 -0.4643
vn -0.1388 0.6106 -0.7797
vn 0.1187 0.5747 -0.8097
vn 0.0680 -0.5800 -0.8118
vn 0.4238 0.7690 -0.4786
vn -0.0676 -0.4980 -0.8646
vn 0.0592 0.2341 0.9704
vn -0.1312 0.7185 0.6831
vn -0.1298 0.9653 0.2267
vn -0.5767 -0.7517 0.3199
vn -0.1298 -0.9653 0.2267
vn -0.5649 0.7466 0.3514
vn 0.5081 -0.8064 0.3026
vn 0.9336 0.2691 -0.2366
vt 0.500000 0.187500
vt 0.625000 0.187500
vt 0.625000 0.250000
vt 0.500000 0.250000
vt 0.500000 0.467620
vt 0.625000 0.467620
vt 0.625000 0.500000
vt 0.500000 0.500000
vt 0.500000 0.687500
vt 0.625000 0.687500
vt 0.625000 0.750000
vt 0.500000 0.750000
vt 0.500000 0.965453
vt 0.625000 0.965453
vt 0.625000 1.000000
vt 0.500000 1.000000
vt 0.342620 0.687500
vt 0.375000 0.687500
vt 0.375000 0.750000
vt 0.342620 0.750000
vt 0.840453 0.687500
vt 0.875000 0.687500
vt 0.875000 0.750000
vt 0.840453 0.750000
vt 0.375000 0.965453
vt 0.375000 1.000000
vt 0.375000 0.467620
vt 0.375000 0.500000
vt 0.375000 0.187500
vt 0.375000 0.250000
vt 0.375000 0.311842
vt 0.500000 0.311842
vt 0.500000 0.373684
vt 0.375000 0.373684
vt 0.375000 0.812654
vt 0.500000 0.812654
vt 0.500000 0.876316
vt 0.375000 0.876316
vt 0.687654 0.687500
vt 0.751316 0.687500
vt 0.751316 0.750000
vt 0.687654 0.750000
vt 0.186842 0.687500
vt 0.248684 0.687500
vt 0.248684 0.750000
vt 0.186842 0.750000
vt 0.625000 0.812654
vt 0.625000 0.876316
vt 0.625000 0.311842
vt 0.625000 0.373684
vt 0.500000 0.284547
vt 0.625000 0.284547
vt 0.159547 0.687500
vt 0.159547 0.750000
vt 0.375000 0.284547
vt 0.500000 0.938158
vt 0.375000 0.938158
vt 0.813158 0.687500
vt 0.813158 0.750000
vt 0.625000 0.938158
vt 0.125000 0.687500
vt 0.125000 0.750000
vt 0.500000 0.782380
vt 0.625000 0.782380
vt 0.657380 0.687500
vt 0.657380 0.750000
vt 0.375000 0.782380
vt 0.500000 0.437346
vt 0.375000 0.437346
vt 0.312346 0.687500
vt 0.312346 0.750000
vt 0.625000 0.437346
vt 0.312346 0.562500
vt 0.342620 0.562500
vt 0.342620 0.625000
vt 0.312346 0.625000
vt 0.625000 0.562500
vt 0.657380 0.562500
vt 0.657380 0.625000
vt 0.625000 0.625000
vt 0.248684 0.562500
vt 0.248684 0.625000
vt 0.687654 0.562500
vt 0.687654 0.625000
vt 0.813158 0.562500
vt 0.840453 0.562500
vt 0.840453 0.625000
vt 0.813158 0.625000
vt 0.125000 0.562500
vt 0.159547 0.562500
vt 0.159547 0.625000
vt 0.125000 0.625000
vt 0.751316 0.562500
vt 0.751316 0.625000
vt 0.186842 0.562500
vt 0.186842 0.625000
vt 0.375000 0.062500
vt 0.500000 0.062500
vt 0.500000 0.125000
vt 0.375000 0.125000
vt 0.375000 0.562500
vt 0.500000 0.562500
vt 0.500000 0.625000
vt 0.375000 0.625000
vt 0.875000 0.562500
vt 0.875000 0.625000
vt 0.625000 0.062500
vt 0.625000 0.125000
vt 0.342620 0.500000
vt 0.840453 0.500000
vt 0.875000 0.500000
vt 0.687654 0.500000
vt 0.751316 0.500000
vt 0.186842 0.500000
vt 0.248684 0.500000
vt 0.159547 0.500000
vt 0.813158 0.500000
vt 0.125000 0.500000
vt 0.657380 0.500000
vt 0.312346 0.500000
vt 0.500000 0.000000
vt 0.625000 0.000000
vt 0.375000 0.000000
s 0
f 61/1/1 59/2/1 4/3/1 10/4/1
f 39/5/2 37/6/2 8/7/2 11/8/2
f 77/9/3 76/10/3 6/11/3 12/12/3
f 27/13/4 26/14/4 2/15/4 9/16/4
f 87/17/5 89/18/5 5/19/5 38/20/5
f 83/21/6 88/22/6 2/23/6 26/24/6
f 29/25/7 27/13/7 9/16/7 1/26/7
f 89/18/3 77/9/3 12/12/3 5/19/3
f 40/27/8 39/5/8 11/8/8 7/28/8
f 62/29/1 61/1/1 10/4/1 3/30/1
f 19/31/9 24/32/9 18/33/9 13/34/9
f 32/35/10 36/36/10 17/37/10 15/38/10
f 84/39/11 78/40/11 16/41/11 35/42/11
f 80/43/12 79/44/12 15/45/12 23/46/12
f 36/36/10 35/47/10 16/48/10 17/37/10
f 24/32/9 22/49/9 14/50/9 18/33/9
f 30/51/13 28/52/13 22/49/13 24/32/13
f 82/53/14 80/43/14 23/46/14 29/54/14
f 25/55/15 30/51/15 24/32/15 19/31/15
f 15/38/16 17/37/16 21/56/16 23/57/16
f 78/40/17 81/58/17 20/59/17 16/41/17
f 17/37/16 16/48/16 20/60/16 21/56/16
f 3/30/18 10/4/18 30/51/18 25/55/18
f 75/61/19 82/53/19 29/54/19 1/62/19
f 10/4/20 4/3/20 28/52/20 30/51/20
f 23/57/21 21/56/21 27/13/21 29/25/21
f 81/58/22 83/21/22 26/24/22 20/59/22
f 21/56/23 20/60/23 26/14/23 27/13/23
f 42/63/24 41/64/24 35/47/24 36/36/24
f 86/65/25 84/39/25 35/42/25 41/66/25
f 38/67/26 42/63/26 36/36/26 32/35/26
f 13/34/27 18/33/27 33/68/27 34/69/27
f 79/44/28 85/70/28 32/71/28 15/45/28
f 18/33/29 14/50/29 31/72/29 33/68/29
f 5/19/30 12/12/30 42/63/30 38/67/30
f 76/10/31 86/65/31 41/66/31 6/11/31
f 12/12/32 6/11/32 41/64/32 42/63/32
f 34/69/33 33/68/33 39/5/33 40/27/33
f 85/70/34 87/17/34 38/20/34 32/71/34
f 33/68/35 31/72/35 37/6/35 39/5/35
f 72/73/36 74/74/36 58/75/36 56/76/36
f 63/77/37 73/78/37 57/79/37 46/80/37
f 66/81/36 72/73/36 56/76/36 50/82/36
f 73/78/38 71/83/38 55/84/38 57/79/38
f 68/85/39 70/86/39 54/87/39 52/88/39
f 62/89/40 69/90/40 53/91/40 43/92/40
f 65/93/41 68/85/41 52/88/41 49/94/41
f 69/90/42 67/95/42 51/96/42 53/91/42
f 67/95/36 66/81/36 50/82/36 51/96/36
f 71/83/41 65/93/41 49/94/41 55/84/41
f 75/97/1 90/98/1 48/99/1 43/100/1
f 60/101/3 64/102/3 47/103/3 45/104/3
f 70/86/43 59/105/43 44/106/43 54/87/43
f 74/74/44 60/101/44 45/104/44 58/75/44
f 64/102/45 63/77/45 46/80/45 47/103/45
f 90/98/1 88/107/1 44/108/1 48/99/1
f 11/8/3 8/7/3 63/77/3 64/102/3
f 40/109/46 7/28/46 60/101/46 74/74/46
f 28/110/47 4/111/47 59/105/47 70/86/47
f 7/28/3 11/8/3 64/102/3 60/101/3
f 31/112/48 14/113/48 65/93/48 71/83/48
f 19/114/49 13/115/49 66/81/49 67/95/49
f 25/116/50 19/114/50 67/95/50 69/90/50
f 14/113/51 22/117/51 68/85/51 65/93/51
f 3/118/52 25/116/52 69/90/52 62/89/52
f 22/117/53 28/110/53 70/86/53 68/85/53
f 37/119/54 31/112/54 71/83/54 73/78/54
f 13/115/55 34/120/55 72/73/55 66/81/55
f 8/7/56 37/119/56 73/78/56 63/77/56
f 34/120/57 40/109/57 74/74/57 72/73/57
f 43/100/1 48/99/1 61/1/1 62/29/1
f 48/99/1 44/108/1 59/2/1 61/1/1
f 9/121/1 2/122/1 88/107/1 90/98/1
f 1/123/1 9/121/1 90/98/1 75/97/1
f 56/76/36 58/75/36 87/17/36 85/70/36
f 46/80/58 57/79/58 86/65/58 76/10/58
f 50/82/36 56/76/36 85/70/36 79/44/36
f 57/79/59 55/84/59 84/39/59 86/65/59
f 52/88/60 54/87/60 83/21/60 81/58/60
f 43/92/61 53/91/61 82/53/61 75/61/61
f 49/94/41 52/88/41 81/58/41 78/40/41
f 53/91/62 51/96/62 80/43/62 82/53/62
f 51/96/36 50/82/36 79/44/36 80/43/36
f 55/84/41 49/94/41 78/40/41 84/39/41
f 45/104/3 47/103/3 77/9/3 89/18/3
f 54/87/63 44/106/63 88/22/63 83/21/63
f 58/75/64 45/104/64 89/18/64 87/17/64
f 47/103/65 46/80/65 76/10/65 77/9/65
o Cube.002
v -2.000000 2.007858 0.415402
v -1.468078 2.440124 0.304921
v -2.000000 2.007858 -0.415402
v -1.468078 2.440124 -0.304921
v 2.000000 2.007858 0.415402
v 1.468078 2.440124 0.304921
v 2.000000 2.007858 -0.415402
v 1.468078 2.440124 -0.304921
v 0.000000 2.007858 -0.415402
v 0.403882 3.860878 -0.415402
v 0.000000 2.007858 0.415402
v 0.403882 3.860878 0.415402
v -2.000000 2.007858 0.000000
v -2.000000 2.440124 0.000000
v 2.000000 2.007858 0.000000
v 2.000000 2.440124 0.000000
v 0.403882 3.860878 0.000000
v 0.000000 2.007858 0.000000
v 0.965939 2.440124 -0.415402
v 0.965939 2.007858 0.415402
v 0.965939 2.007858 -0.415402
v 0.965939 2.440124 0.415402
v 0.965939 2.440124 0.000000
v 0.965939 2.007858 0.000000
v -0.995693 2.007858 -0.415402
v -0.995693 2.440124 0.415402
v -0.995693 2.440124 -0.415402
v -0.995693 2.007858 0.415402
v -0.995693 2.007858 0.000000
v -0.995693 2.440124 0.000000
v 0.117200 3.860878 -0.244700
v -0.497847 2.007858 0.415402
v 0.026713 3.860878 0.000000
v -0.497847 2.007858 -0.415402
v 0.117200 3.860878 0.244700
v -0.497847 2.007858 0.000000
v 0.486419 2.007858 -0.415402
v 0.679136 3.860878 0.244700
v 0.486419 2.007858 0.000000
v 0.679136 3.860878 -0.244700
v 0.486419 2.007858 0.415402
v 0.769624 3.860878 0.000000
vn -0.6986 0.4958 -0.5159
vn 0.0707 0.1691 -0.9831
vn 0.6986 0.4958 0.5159
vn -0.0735 0.1708 0.9826
vn -0.0000 -1.0000 -0.0000
vn -0.0000 1.0000 -0.0000
vn 0.2187 0.0097 0.9757
vn -0.2115 0.1029 -0.9719
vn 0.6986 0.4958 -0.5159
vn -0.6986 0.4958 0.5159
vn 0.0707 0.1691 0.9831
vn -0.0724 0.0804 -0.9941
vn -0.7916 0.6014 -0.1085
vn -0.0735 0.1708 -0.9826
vn -0.7916 0.6014 0.1085
vn 0.0524 0.0604 0.9968
vn -0.2115 0.1029 0.9719
vn 0.0524 0.0604 -0.9968
vn 0.2187 0.0097 -0.9757
vn 0.9756 0.1739 -0.1337
vn -0.0724 0.0804 0.9941
vn 0.9756 0.1739 0.1337
vt 0.375000 0.125000
vt 0.625000 0.125000
vt 0.625000 0.250000
vt 0.375000 0.250000
vt 0.375000 0.435371
vt 0.625000 0.435371
vt 0.625000 0.500000
vt 0.375000 0.500000
vt 0.375000 0.625000
vt 0.625000 0.625000
vt 0.625000 0.750000
vt 0.375000 0.750000
vt 0.375000 0.937231
vt 0.625000 0.937231
vt 0.625000 1.000000
vt 0.375000 1.000000
vt 0.310371 0.625000
vt 0.310371 0.750000
vt 0.812231 0.625000
vt 0.875000 0.625000
vt 0.875000 0.750000
vt 0.812231 0.750000
vt 0.719599 0.625000
vt 0.750000 0.625000
vt 0.750000 0.750000
vt 0.719599 0.750000
vt 0.218885 0.625000
vt 0.250000 0.625000
vt 0.250000 0.750000
vt 0.218885 0.750000
vt 0.375000 0.844599
vt 0.625000 0.844599
vt 0.625000 0.875000
vt 0.375000 0.875000
vt 0.375000 0.343885
vt 0.625000 0.343885
vt 0.625000 0.375000
vt 0.375000 0.375000
vt 0.218885 0.500000
vt 0.250000 0.500000
vt 0.719599 0.500000
vt 0.750000 0.500000
vt 0.812231 0.500000
vt 0.875000 0.500000
vt 0.310371 0.500000
vt 0.375000 0.000000
vt 0.625000 0.000000
vt 0.280401 0.500000
vt 0.280401 0.625000
vt 0.689629 0.500000
vt 0.689629 0.625000
vt 0.625000 0.814629
vt 0.375000 0.814629
vt 0.689629 0.750000
vt 0.280401 0.750000
vt 0.375000 0.405401
vt 0.625000 0.405401
vt 0.781115 0.500000
vt 0.781115 0.625000
vt 0.125000 0.500000
vt 0.187769 0.500000
vt 0.187769 0.625000
vt 0.125000 0.625000
vt 0.625000 0.312769
vt 0.375000 0.312769
vt 0.187769 0.750000
vt 0.125000 0.750000
vt 0.781115 0.750000
vt 0.375000 0.906115
vt 0.625000 0.906115
s 0
f 103/124/66 104/125/66 94/126/66 93/127/66
f 111/128/67 109/129/67 98/130/67 97/131/67
f 105/132/68 106/133/68 96/134/68 95/135/68
f 118/136/69 116/137/69 92/138/69 91/139/69
f 114/140/70 105/132/70 95/135/70 110/141/70
f 120/142/71 104/143/71 92/144/71 116/145/71
f 132/146/71 107/147/71 102/148/71 128/149/71
f 126/150/70 108/151/70 101/152/70 122/153/70
f 131/154/72 128/155/72 102/156/72 101/157/72
f 124/158/73 121/159/73 100/160/73 99/161/73
f 124/162/70 99/163/70 108/151/70 126/150/70
f 130/164/71 100/165/71 107/147/71 132/146/71
f 117/166/71 94/167/71 104/143/71 120/142/71
f 111/168/70 97/131/70 105/132/70 114/140/70
f 97/131/74 98/130/74 106/133/74 105/132/74
f 91/169/75 92/170/75 104/125/75 103/124/75
f 127/171/70 111/168/70 114/140/70 129/172/70
f 98/130/71 109/173/71 113/174/71 106/133/71
f 95/135/76 96/134/76 112/175/76 110/176/76
f 106/133/71 113/174/71 112/177/71 96/134/71
f 129/172/70 114/140/70 110/141/70 131/178/70
f 127/179/77 130/180/77 109/129/77 111/128/77
f 121/181/78 117/166/78 120/142/78 123/182/78
f 93/183/70 115/184/70 119/185/70 103/186/70
f 93/127/79 94/126/79 117/187/79 115/188/79
f 103/186/70 119/185/70 118/189/70 91/190/70
f 123/182/80 120/142/80 116/145/80 125/191/80
f 122/192/81 125/193/81 116/137/81 118/136/81
f 101/157/82 102/156/82 125/193/82 122/192/82
f 107/147/71 123/182/71 125/191/71 102/148/71
f 100/165/71 121/181/71 123/182/71 107/147/71
f 115/184/70 124/162/70 126/150/70 119/185/70
f 115/188/83 117/187/83 121/159/83 124/158/83
f 119/185/70 126/150/70 122/153/70 118/189/70
f 99/161/84 100/160/84 130/180/84 127/179/84
f 108/151/70 129/172/70 131/178/70 101/152/70
f 99/163/70 127/171/70 129/172/70 108/151/70
f 109/173/85 130/164/85 132/146/85 113/174/85
f 110/176/86 112/175/86 128/155/86 131/154/86
f 113/174/87 132/146/87 128/149/87 112/177/87
o Cube.004
v 8.142702 -0.668516 1.668516
v 8.142702 0.668516 1.668516
v 8.142702 -0.668516 0.331484
v 8.142702 0.668516 0.331484
v 8.457298 -0.668516 1.668516
v 8.457298 0.668516 1.668516
v 8.457298 -0.668516 0.331484
v 8.457298 0.668516 0.331484
v 8.100000 -0.037058 1.850000
v 8.100000 -0.037058 0.150000
v 8.500000 -0.037058 0.150000
v 8.500000 -0.037058 1.850000
v 8.100000 -0.850000 1.000000
v 8.100000 0.850000 1.000000
v 8.500000 -0.850000 1.000000
v 8.500000 0.850000 1.000000
v 8.500000 -0.037058 1.000000
v 8.100000 -0.037058 1.000000
v 8.100000 -0.850000 1.425000
v 8.500000 0.850000 1.425000
v 8.500000 -0.037058 1.425000
v 8.100000 0.850000 1.425000
v 8.500000 -0.850000 1.425000
v 8.100000 -0.037058 1.425000
v 8.100000 0.850000 0.575000
v 8.500000 -0.850000 0.575000
v 8.100000 -0.037058 0.575000
v 8.100000 -0.850000 0.575000
v 8.500000 0.850000 0.575000
v 8.500000 -0.037058 0.575000
v 8.100000 0.406979 1.850000
v 8.100000 0.406979 0.150000
v 8.500000 0.406979 0.150000
v 8.500000 0.406979 1.850000
v 8.500000 0.406979 1.000000
v 8.100000 0.406979 1.000000
v 8.100000 0.406979 1.425000
v 8.500000 0.406979 1.425000
v 8.500000 0.406979 0.575000
v 8.100000 0.406979 0.575000
v 8.100000 -0.443529 0.150000
v 8.500000 -0.443529 0.150000
v 8.500000 -0.443529 1.850000
v 8.100000 -0.443529 1.850000
v 8.100000 -0.443529 1.000000
v 8.500000 -0.443529 1.000000
v 8.100000 -0.443529 1.425000
v 8.500000 -0.443529 1.425000
v 8.500000 -0.443529 0.575000
v 8.100000 -0.443529 0.575000
vn -0.9929 0.0823 -0.0858
vn -0.0000 0.5701 -0.8216
vn 0.9929 0.0823 0.0858
vn -0.0000 0.5701 0.8216
vn -0.0000 -0.8018 0.5976
vn -0.0000 0.8018 0.5976
vn -0.0000 -0.0000 1.0000
vn 1.0000 -0.0000 -0.0000
vn -0.0000 -0.0000 -1.0000
vn -1.0000 -0.0000 -0.0000
vn -0.0000 1.0000 -0.0000
vn -0.0000 -1.0000 -0.0000
vn -0.9929 0.0823 0.0858
vn 0.9929 0.0823 -0.0858
vn -0.0000 -0.8018 -0.5976
vn -0.0000 0.8018 -0.5976
vn 0.9918 -0.0925 -0.0885
vn -0.9918 -0.0925 0.0885
vn -0.9918 -0.0925 -0.0885
vn -0.0000 -0.6278 -0.7783
vn 0.9918 -0.0925 0.0885
vn -0.0000 -0.6278 0.7783
vt 0.559850 0.187500
vt 0.625000 0.187500
vt 0.625000 0.250000
vt 0.559850 0.250000
vt 0.625000 0.500000
vt 0.559850 0.500000
vt 0.559850 0.687500
vt 0.625000 0.687500
vt 0.625000 0.750000
vt 0.559850 0.750000
vt 0.625000 1.000000
vt 0.559850 1.000000
vt 0.125000 0.687500
vt 0.375000 0.687500
vt 0.375000 0.750000
vt 0.125000 0.750000
vt 0.875000 0.687500
vt 0.875000 0.750000
vt 0.434775 0.750000
vt 0.494550 0.750000
vt 0.494550 1.000000
vt 0.434775 1.000000
vt 0.434775 0.687500
vt 0.494550 0.687500
vt 0.434775 0.250000
vt 0.494550 0.250000
vt 0.494550 0.500000
vt 0.434775 0.500000
vt 0.434775 0.187500
vt 0.494550 0.187500
vt 0.434775 0.062500
vt 0.494550 0.062500
vt 0.494550 0.125000
vt 0.434775 0.125000
vt 0.434775 0.562500
vt 0.494550 0.562500
vt 0.494550 0.625000
vt 0.434775 0.625000
vt 0.625000 0.562500
vt 0.875000 0.562500
vt 0.875000 0.625000
vt 0.625000 0.625000
vt 0.125000 0.562500
vt 0.375000 0.562500
vt 0.375000 0.625000
vt 0.125000 0.625000
vt 0.559850 0.562500
vt 0.559850 0.625000
vt 0.559850 0.062500
vt 0.625000 0.062500
vt 0.625000 0.125000
vt 0.559850 0.125000
vt 0.559850 0.000000
vt 0.625000 0.000000
vt 0.434775 0.000000
vt 0.494550 0.000000
vt 0.125000 0.500000
vt 0.375000 0.500000
vt 0.875000 0.500000
vt 0.375000 0.125000
vt 0.375000 0.187500
vt 0.375000 0.000000
vt 0.375000 0.062500
vt 0.375000 0.250000
vt 0.375000 1.000000
s 0
f 172/194/88 157/195/88 136/196/88 164/197/88
f 164/197/89 136/196/89 140/198/89 165/199/89
f 170/200/90 152/201/90 138/202/90 166/203/90
f 166/203/91 138/202/91 134/204/91 163/205/91
f 151/206/92 155/207/92 137/208/92 133/209/92
f 152/201/93 154/210/93 134/211/93 138/202/93
f 175/212/94 144/213/94 141/214/94 176/215/94
f 180/216/95 153/217/95 144/213/95 175/212/95
f 173/218/96 142/219/96 143/220/96 174/221/96
f 182/222/97 159/223/97 142/219/97 173/218/97
f 179/224/97 156/225/97 150/226/97 177/227/97
f 181/228/95 162/229/95 149/230/95 178/231/95
f 161/232/98 157/233/98 146/234/98 148/235/98
f 160/236/99 158/237/99 147/238/99 145/239/99
f 171/240/95 161/232/95 148/235/95 167/241/95
f 169/242/97 154/243/97 146/244/97 168/245/97
f 163/246/100 134/247/100 154/243/100 169/242/100
f 176/248/97 141/249/97 156/225/97 179/224/97
f 178/231/95 149/230/95 153/217/95 180/216/95
f 148/235/98 146/234/98 154/210/98 152/201/98
f 145/239/99 147/238/99 155/207/99 151/206/99
f 167/241/95 148/235/95 152/201/95 170/200/95
f 165/199/101 140/198/101 161/232/101 171/240/101
f 135/250/102 139/251/102 158/237/102 160/236/102
f 140/198/103 136/252/103 157/233/103 161/232/103
f 174/221/95 143/220/95 162/229/95 181/228/95
f 177/227/97 150/226/97 159/223/97 182/222/97
f 168/245/97 146/244/97 157/195/97 172/194/97
f 150/226/97 168/245/97 172/194/97 159/223/97
f 143/220/95 165/199/95 171/240/95 162/229/95
f 149/230/95 167/241/95 170/200/95 153/217/95
f 141/249/97 163/246/97 169/242/97 156/225/97
f 156/225/97 169/242/97 168/245/97 150/226/97
f 162/229/95 171/240/95 167/241/95 149/230/95
f 144/213/94 166/203/94 163/205/94 141/214/94
f 153/217/95 170/200/95 166/203/95 144/213/95
f 142/219/96 164/197/96 165/199/96 143/220/96
f 159/223/97 172/194/97 164/197/97 142/219/97
f 145/253/97 177/227/97 182/222/97 160/254/97
f 139/251/104 174/221/104 181/228/104 158/237/104
f 147/238/95 178/231/95 180/216/95 155/207/95
f 133/255/105 176/248/105 179/224/105 151/256/105
f 158/237/95 181/228/95 178/231/95 147/238/95
f 151/256/97 179/224/97 177/227/97 145/253/97
f 160/254/106 182/222/106 173/218/106 135/257/106
f 135/257/107 173/218/107 174/221/107 139/251/107
f 155/207/108 180/216/108 175/212/108 137/208/108
f 137/208/109 175/212/109 176/215/109 133/258/109
o Cube.006
v 7.150000 -0.120000 2.100000
v 7.150000 0.120000 2.100000
v 7.150000 -0.120000 -2.100000
v 7.150000 0.120000 -2.100000
v 8.150000 -0.120000 2.100000
v 8.150000 0.120000 2.100000
v 8.150000 -0.120000 -2.100000
v 8.150000 0.120000 -2.100000
vn -1.0000 -0.0000 -0.0000
vn -0.0000 -0.0000 -1.0000
vn 1.0000 -0.0000 -0.0000
vn -0.0000 -0.0000 1.0000
vn -0.0000 -1.0000 -0.0000
vn -0.0000 1.0000 -0.0000
vt 0.375000 0.000000
vt 0.625000 0.000000
vt 0.625000 0.250000
vt 0.375000 0.250000
vt 0.625000 0.500000
vt 0.375000 0.500000
vt 0.625000 0.750000
vt 0.375000 0.750000
vt 0.625000 1.000000
vt 0.375000 1.000000
vt 0.125000 0.500000
vt 0.125000 0.750000
vt 0.875000 0.500000
vt 0.875000 0.750000
s 0
f 183/259/110 184/260/110 186/261/110 185/262/110
f 185/262/111 186/261/111 190/263/111 189/264/111
f 189/264/112 190/263/112 188/265/112 187/266/112
f 187/266/113 188/265/113 184/267/113 183/268/113
f 185/269/114 189/264/114 187/266/114 183/270/114
f 190/263/115 186/271/115 184/272/115 188/265/115
o Cube.005
v 8.142702 -0.668516 -0.331484
v 8.142702 0.668516 -0.331484
v 8.142702 -0.668516 -1.668516
v 8.142702 0.668516 -1.668516
v 8.457298 -0.668516 -0.331484
v 8.457298 0.668516 -0.331484
v 8.457298 -0.668516 -1.668516
v 8.457298 0.668516 -1.668516
v 8.100000 -0.037058 -0.150000
v 8.100000 -0.037058 -1.850000
v 8.500000 -0.037058 -1.850000
v 8.500000 -0.037058 -0.150000
v 8.100000 -0.850000 -1.000000
v 8.100000 0.850000 -1.000000
v 8.500000 -0.850000 -1.000000
v 8.500000 0.850000 -1.000000
v 8.500000 -0.037058 -1.000000
v 8.100000 -0.037058 -1.000000
v 8.100000 -0.850000 -0.575000
v 8.500000 0.850000 -0.575000
v 8.500000 -0.037058 -0.575000
v 8.100000 0.850000 -0.575000
v 8.500000 -0.850000 -0.575000
v 8.100000 -0.037058 -0.575000
v 8.100000 0.850000 -1.425000
v 8.500000 -0.850000 -1.425000
v 8.100000 -0.037058 -1.425000
v 8.100000 -0.850000 -1.425000
v 8.500000 0.850000 -1.425000
v 8.500000 -0.037058 -1.425000
v 8.100000 0.406979 -0.150000
v 8.100000 0.406979 -1.850000
v 8.500000 0.406979 -1.850000
v 8.500000 0.406979 -0.150000
v 8.500000 0.406979 -1.000000
v 8.100000 0.406979 -1.000000
v 8.100000 0.406979 -0.575000
v 8.500000 0.406979 -0.575000
v 8.500000 0.406979 -1.425000
v 8.100000 0.406979 -1.425000
v 8.100000 -0.443529 -1.850000
v 8.500000 -0.443529 -1.850000
v 8.500000 -0.443529 -0.150000
v 8.100000 -0.443529 -0.150000
v 8.100000 -0.443529 -1.000000
v 8.500000 -0.443529 -1.000000
v 8.100000 -0.443529 -0.575000
v 8.500000 -0.443529 -0.575000
v 8.500000 -0.443529 -1.425000
v 8.100000 -0.443529 -1.425000
vn -0.9929 0.0823 -0.0858
vn -0.0000 0.5701 -0.8216
vn 0.9929 0.0823 0.0858
vn -0.0000 0.5701 0.8216
vn -0.0000 -0.8018 0.5976
vn -0.0000 0.8018 0.5976
vn -0.0000 -0.0000 1.0000
vn 1.0000 -0.0000 -0.0000
vn -0.0000 -0.0000 -1.0000
vn -1.0000 -0.0000 -0.0000
vn -0.0000 1.0000 -0.0000
vn -0.0000 -1.0000 -0.0000
vn -0.9929 0.0823 0.0858
vn 0.9929 0.0823 -0.0858
vn -0.0000 -0.8018 -0.5976
vn -0.0000 0.8018 -0.5976
vn 0.9918 -0.0925 -0.0885
vn -0.9918 -0.0925 0.0885
vn -0.9918 -0.0925 -0.0885
vn -0.0000 -0.6278 -0.7783
vn 0.9918 -0.0925 0.0885
vn -0.0000 -0.6278 0.7783
vt 0.559850 0.187500
vt 0.625000 0.187500
vt 0.625000 0.250000
vt 0.559850 0.250000
vt 0.625000 0.500000
vt 0.559850 0.500000
vt 0.559850 0.687500
vt 0.625000 0.687500
vt 0.625000 0.750000
vt 0.559850 0.750000
vt 0.625000 1.000000
vt 0.559850 1.000000
vt 0.125000 0.687500
vt 0.375000 0.687500
vt 0.375000 0.750000
vt 0.125000 0.750000
vt 0.875000 0.687500
vt 0.875000 0.750000
vt 0.434775 0.750000
vt 0.494550 0.750000
vt 0.494550 1.000000
vt 0.434775 1.000000
vt 0.434775 0.687500
vt 0.494550 0.687500
vt 0.434775 0.250000
vt 0.494550 0.250000
vt 0.494550 0.500000
vt 0.434775 0.500000
vt 0.434775 0.187500
vt 0.494550 0.187500
vt 0.434775 0.062500
vt 0.494550 0.062500
vt 0.494550 0.125000
vt 0.434775 0.125000
vt 0.434775 0.562500
vt 0.494550 0.562500
vt 0.494550 0.625000
vt 0.434775 0.625000
vt 0.625000 0.562500
vt 0.875000 0.562500
vt 0.875000 0.625000
vt 0.625000 0.625000
vt 0.125000 0.562500
vt 0.375000 0.562500
vt 0.375000 0.625000
vt 0.125000 0.625000
vt 0.559850 0.562500
vt 0.559850 0.625000
vt 0.559850 0.062500
vt 0.625000 0.062500
vt 0.625000 0.125000
vt 0.559850 0.125000
vt 0.559850 0.000000
vt 0.625000 0.000000
vt 0.434775 0.000000
vt 0.494550 0.000000
vt 0.125000 0.500000
vt 0.375000 0.500000
vt 0.875000 0.500000
vt 0.375000 0.125000
vt 0.375000 0.187500
vt 0.375000 0.000000
vt 0.375000 0.062500
vt 0.375000 0.250000
vt 0.375000 1.000000
s 0
f 230/273/116 215/274/116 194/275/116 222/276/116
f 222/276/117 194/275/117 198/277/117 223/278/117
f 228/279/118 210/280/118 196/281/118 224/282/118
f 224/282/119 196/281/119 192/283/119 221/284/119
f 209/285/120 213/286/120 195/287/120 191/288/120
f 210/280/121 212/289/121 192/290/121 196/281/121
f 233/291/122 202/292/122 199/293/122 234/294/122
f 238/295/123 211/296/123 202/292/123 233/291/123
f 231/297/124 200/298/124 201/299/124 232/300/124
f 240/301/125 217/302/125 200/298/125 231/297/125
f 237/303/125 214/304/125 208/305/125 235/306/125
f 239/307/123 220/308/123 207/309/123 236/310/123
f 219/311/126 215/312/126 204/313/126 206/314/126
f 218/315/127 216/316/127 205/317/127 203/318/127
f 229/319/123 219/311/123 206/314/123 225/320/123
f 227/321/125 212/322/125 204/323/125 226/324/125
f 221/325/128 192/326/128 212/322/128 227/321/128
f 234/327/125 199/328/125 214/304/125 237/303/125
f 236/310/123 207/309/123 211/296/123 238/295/123
f 206/314/126 204/313/126 212/289/126 210/280/126
f 203/318/127 205/317/127 213/286/127 209/285/127
f 225/320/123 206/314/123 210/280/123 228/279/123
f 223/278/129 198/277/129 219/311/129 229/319/129
f 193/329/130 197/330/130 216/316/130 218/315/130
f 198/277/131 194/331/131 215/312/131 219/311/131
f 232/300/123 201/299/123 220/308/123 239/307/123
f 235/306/125 208/305/125 217/302/125 240/301/125
f 226/324/125 204/323/125 215/274/125 230/273/125
f 208/305/125 226/324/125 230/273/125 217/302/125
f 201/299/123 223/278/123 229/319/123 220/308/123
f 207/309/123 225/320/123 228/279/123 211/296/123
f 199/328/125 221/325/125 227/321/125 214/304/125
f 214/304/125 227/321/125 226/324/125 208/305/125
f 220/308/123 229/319/123 225/320/123 207/309/123
f 202/292/122 224/282/122 221/284/122 199/293/122
f 211/296/123 228/279/123 224/282/123 202/292/123
f 200/298/124 222/276/124 223/278/124 201/299/124
f 217/302/125 230/273/125 222/276/125 200/298/125
f 203/332/125 235/306/125 240/301/125 218/333/125
f 197/330/132 232/300/132 239/307/132 216/316/132
f 205/317/123 236/310/123 238/295/123 213/286/123
f 191/334/133 234/327/133 237/303/133 209/335/133
f 216/316/123 239/307/123 236/310/123 205/317/123
f 209/335/125 237/303/125 235/306/125 203/332/125
f 218/333/134 240/301/134 231/297/134 193/336/134
f 193/336/135 231/297/135 232/300/135 197/330/135
f 213/286/136 238/295/136 233/291/136 195/287/136
f 195/287/137 233/291/137 234/294/137 191/337/137
o Cube.007
v 7.013238 -0.360000 2.167763
v 7.013238 0.360000 2.167763
v 7.013238 -0.360000 2.032236
v 7.013238 0.360000 2.032236
v 8.213239 -0.360000 2.167763
v 8.213239 0.360000 2.167763
v 8.213239 -0.360000 2.032236
v 8.213239 0.360000 2.032236
vn -1.0000 -0.0000 -0.0000
vn -0.0000 -0.0000 -1.0000
vn 1.0000 -0.0000 -0.0000
vn -0.0000 -0.0000 1.0000
vn -0.0000 -1.0000 -0.0000
vn -0.0000 1.0000 -0.0000
vt 0.375000 0.000000
vt 0.625000 0.000000
vt 0.625000 0.250000
vt 0.375000 0.250000
vt 0.625000 0.500000
vt 0.375000 0.500000
vt 0.625000 0.750000
vt 0.375000 0.750000
vt 0.625000 1.000000
vt 0.375000 1.000000
vt 0.125000 0.500000
vt 0.125000 0.750000
vt 0.875000 0.500000
vt 0.875000 0.750000
s 0
f 241/338/138 242/339/138 244/340/138 243/341/138
f 243/341/139 244/340/139 248/342/139 247/343/139
f 247/343/140 248/342/140 246/344/140 245/345/140
f 245/345/141 246/344/141 242/346/141 241/347/141
f 243/348/142 247/343/142 245/345/142 241/349/142
f 248/342/143 244/350/143 242/351/143 246/344/143
o Cube.008
v 7.013238 -0.360000 -2.032236
v 7.013238 0.360000 -2.032236
v 7.013238 -0.360000 -2.167763
v 7.013238 0.360000 -2.167763
v 8.213239 -0.360000 -2.032236
v 8.213239 0.360000 -2.032236
v 8.213239 -0.360000 -2.167763
v 8.213239 0.360000 -2.167763
vn -1.0000 -0.0000 -0.0000
vn -0.0000 -0.0000 -1.0000
vn 1.0000 -0.0000 -0.0000
vn -0.0000 -0.0000 1.0000
vn -0.0000 -1.0000 -0.0000
vn -0.0000 1.0000 -0.0000
vt 0.375000 0.000000
vt 0.625000 0.000000
vt 0.625000 0.250000
vt 0.375000 0.250000
vt 0.625000 0.500000
vt 0.375000 0.500000
vt 0.625000 0.750000
vt 0.375000 0.750000
vt 0.625000 1.000000
vt 0.375000 1.000000
vt 0.125000 0.500000
vt 0.125000 0.750000
vt 0.875000 0.500000
vt 0.875000 0.750000
s 0
f 249/352/144 250/353/144 252/354/144 251/355/144
f 251/355/145 252/354/145 256/356/145 255/357/145
f 255/357/146 256/356/146 254/358/146 253/359/146
f 253/359/147 254/358/147 250/360/147 249/361/147
f 251/362/148 255/357/148 253/359/148 249/363/148
f 256/356/149 252/364/149 250/365/149 254/358/149
