# Blender 4.5.1 LTS
# www.blender.org
mtllib playerBullet.mtl
o Cube
v 1.619707 0.449438 -0.422188
v 1.619707 -0.449438 -0.422188
v 1.619707 0.449438 0.422188
v 1.619707 -0.449438 0.422188
v -1.783191 0.252869 -0.252869
v -1.783191 -0.252869 -0.252869
v -1.783191 0.252869 0.252869
v -1.783191 -0.252869 0.252869
v 0.169896 -0.437717 -0.434783
v 0.169896 0.437717 0.434783
v 0.386802 -0.437211 0.432587
v 0.386802 0.437211 -0.432587
v -0.977897 -0.403424 -0.403424
v -0.977897 0.403424 0.403424
v -0.833357 -0.411969 0.411969
v -0.833357 0.411969 -0.411969
v 1.736721 0.000000 -0.436873
v -1.867505 0.000000 0.371662
v 1.736721 0.000000 0.436873
v -1.867506 0.000000 -0.371662
v 0.035955 0.046667 -0.500000
v 0.035955 -0.046667 0.500000
v -1.034680 -0.027778 -0.472776
v -1.034680 0.027778 0.472776
v -1.867505 -0.371662 0.000000
v 1.736721 0.442742 -0.000000
v -1.867505 0.371662 0.000000
v 1.736721 -0.442742 -0.000000
v 0.035955 -0.500000 0.046667
v 0.035955 0.500000 -0.046667
v -1.034680 -0.472776 -0.027778
v -1.034680 0.472776 0.027778
v 2.000000 0.000000 0.000000
v -2.000000 -0.000000 0.000000
v -1.870660 -0.339931 0.102501
v -1.369072 -0.343902 -0.343902
v 1.743579 -0.325997 -0.450387
v -1.870660 0.102501 0.339931
v 1.743579 -0.325997 0.450387
v -1.870660 -0.102501 -0.339931
v -1.369072 0.343902 0.343902
v 1.743579 0.472767 0.303995
v 1.196932 -0.471892 0.449554
v -1.870660 0.339931 -0.102501
v 1.196932 0.471892 -0.449554
v 1.743579 -0.472767 -0.303995
v 1.180112 -0.472443 -0.450253
v 1.180112 0.472443 0.450253
v -0.322980 -0.438102 0.437765
v -0.322980 0.438102 -0.437765
v 0.142227 -0.191613 -0.495902
v 0.161413 -0.494534 0.247750
v 0.161413 -0.248238 0.494046
v 0.142227 0.496243 0.191273
v -0.562843 -0.436458 -0.436269
v -0.562843 0.436458 0.436269
v -1.358557 -0.344963 0.344963
v -1.358557 0.344963 -0.344963
v -0.968878 -0.466765 0.216727
v -0.981760 -0.268057 -0.463389
v -0.968878 -0.216727 0.466765
v -0.981760 0.463389 0.268057
v 1.743579 0.325997 -0.450387
v -1.870660 -0.102501 0.339931
v 1.743579 0.325997 0.450387
v -1.870660 0.102501 -0.339931
v 0.161413 0.248238 -0.494046
v 0.142227 0.191613 0.495902
v -0.968878 0.216727 -0.466765
v -0.981760 0.268057 0.463389
v -0.469201 -0.002404 0.497581
v -1.580353 -0.001890 -0.436732
v 0.809593 -0.004861 0.496145
v -0.469202 0.002404 -0.497581
v 0.809593 0.004861 -0.496145
v 1.983023 -0.000000 0.195219
v -1.983438 -0.000000 -0.239510
v -1.580353 0.001890 0.436732
v -1.870660 -0.339931 -0.102501
v 1.743579 0.472767 -0.303995
v -1.870660 0.339931 0.102501
v 1.743579 -0.472767 0.303995
v 0.142227 -0.496243 -0.191273
v 0.161413 0.494534 -0.247750
v -0.981760 -0.463389 -0.268057
v -0.968878 0.466765 -0.216727
v 1.983023 -0.000000 -0.195219
v -1.983438 -0.000000 0.239510
v -1.983438 -0.239510 0.000000
v 1.983023 -0.195900 -0.000000
v -0.469202 0.497581 -0.002404
v -1.580353 -0.436732 -0.001890
v 0.809593 0.496826 -0.004861
v -0.469202 -0.497581 0.002404
v 1.983023 0.195900 -0.000000
v 0.809593 -0.496826 0.004861
v -1.983438 0.239510 0.000000
v -1.580353 0.436732 0.001890
v -1.474672 0.397559 0.153592
v -1.474672 0.153592 0.397559
v -1.979495 0.151136 -0.151136
v 1.027684 -0.500312 0.249625
v 1.956991 0.256038 0.249301
v 1.027684 0.256319 -0.493239
v -0.452457 0.245575 -0.491871
v -0.452457 -0.491871 0.245575
v 1.010865 0.255714 0.493938
v 1.010865 0.500864 0.249166
v -1.474672 -0.397559 0.148656
v -1.474672 0.148656 -0.397559
v -0.462808 0.246149 0.492218
v -0.462808 0.492407 0.245960
v -0.452457 -0.245575 0.491871
v -1.474672 -0.153592 -0.397559
v 1.027684 -0.256319 0.493239
v -0.462808 -0.246149 -0.492218
v 1.010865 -0.255714 -0.493938
v 1.956991 -0.256038 0.249301
v -1.979495 -0.151136 -0.151136
v -1.474672 -0.148656 0.397559
v -1.979495 -0.151136 0.151136
v 1.956991 -0.256038 -0.249301
v -0.452457 0.491871 -0.245575
v -1.474672 -0.397559 -0.153592
v 1.027684 0.500312 -0.249625
v -0.462808 -0.492407 -0.245960
v 1.956991 0.256038 -0.249301
v 1.010865 -0.500864 -0.249166
v -1.979495 0.151136 0.151136
v -1.474672 0.397559 -0.148656
v -1.299935 0.410800 0.252481
v -1.650396 0.085507 0.406334
v -1.975453 0.084798 -0.247306
v 0.684676 -0.498458 0.166863
v 1.987267 0.159893 0.158843
v 0.684676 0.167898 -0.497281
v -0.634946 0.161542 -0.493501
v -0.634946 -0.493501 0.161542
v 0.678369 0.158383 0.497544
v 1.329651 0.512543 0.341701
v -1.650396 -0.406334 0.084090
v -1.650396 0.084090 -0.406334
v -0.282181 0.157536 0.497729
v -0.282181 0.497799 0.157465
v -0.256286 -0.323663 0.488815
v -1.299935 -0.252481 -0.410800
v 1.335958 -0.360943 0.492690
v -0.649801 -0.325899 -0.484147
v 1.329651 -0.361150 -0.492952
v 1.917848 -0.361271 0.341752
v -1.975453 -0.247306 -0.084798
v -1.295992 -0.244952 0.411632
v -1.975453 -0.247306 0.084798
v 1.917848 -0.361271 -0.341752
v -0.256286 0.488941 -0.323537
v -1.650396 -0.406334 -0.085507
v 1.335958 0.512336 -0.341439
v -0.649801 -0.484218 -0.325828
v 1.987267 0.159893 -0.158843
v 0.678369 -0.498665 -0.157403
v -1.975453 0.084798 0.247306
v -1.295992 0.411632 -0.244952
v -1.650396 0.406334 0.085507
v -1.299935 0.252481 0.410800
v -1.975453 0.247306 -0.084798
v 1.335958 -0.512336 0.341439
v 1.917848 0.361271 0.341752
v 1.335958 0.360943 -0.492690
v -0.256286 0.323663 -0.488815
v -0.256286 -0.488941 0.323537
v 1.329651 0.361150 0.492952
v 0.678369 0.498665 0.157403
v -1.295992 -0.411632 0.244952
v -1.295992 0.244952 -0.411632
v -0.649801 0.325899 0.484147
v -0.649801 0.484218 0.325828
v -0.634946 -0.161542 0.493501
v -1.650396 -0.085507 -0.406334
v 0.684676 -0.167898 0.497281
v -0.282181 -0.157536 -0.497729
v 0.678369 -0.158383 -0.497543
v 1.987267 -0.159893 0.158843
v -1.975453 -0.084798 -0.247306
v -1.650396 -0.084090 0.406334
v -1.975453 -0.084798 0.247306
v 1.987267 -0.159893 -0.158843
v -0.634946 0.493501 -0.161542
v -1.299935 -0.410800 -0.252481
v 0.684676 0.498458 -0.166863
v -0.282181 -0.497799 -0.157465
v 1.917848 0.361271 -0.341752
v 1.329651 -0.512543 -0.341701
v -1.975453 0.247306 0.084798
v -1.650396 0.406334 -0.084090
vn -0.1526 0.9841 0.0913
vn -0.2840 0.8701 0.4029
vn -0.1854 0.8794 0.4386
vn -0.0748 0.2978 0.9517
vn -0.1901 0.5773 0.7941
vn -0.2384 0.2219 0.9455
vn -0.9948 0.0697 -0.0748
vn -0.5783 0.6450 -0.4995
vn -0.7136 0.1069 -0.6923
vn 0.0443 -0.9976 -0.0537
vn -0.0070 -0.9761 0.2172
vn 0.0004 -0.9999 0.0106
vn 0.7667 0.6377 -0.0738
vn 0.7584 -0.0600 0.6490
vn 0.9984 0.0398 0.0400
vn -0.0013 0.2323 -0.9727
vn 0.0520 -0.0335 -0.9981
vn 0.0017 0.0132 -0.9999
vn -0.0616 0.2646 -0.9624
vn -0.0056 0.0239 -0.9997
vn -0.0569 0.0109 -0.9983
vn -0.0056 -0.9997 0.0239
vn -0.0616 -0.9624 0.2646
vn -0.0569 -0.9983 0.0109
vn 0.0524 -0.0320 0.9981
vn -0.0124 0.1977 0.9802
vn 0.0016 0.0068 1.0000
vn 0.0487 0.9884 -0.1439
vn -0.0489 0.9824 0.1800
vn 0.0967 0.9222 0.3746
vn -0.0515 -0.9571 0.2852
vn -0.1831 -0.7948 0.5786
vn -0.2364 -0.9464 0.2201
vn -0.1831 0.5786 -0.7948
vn -0.0515 0.2852 -0.9571
vn -0.2364 0.2202 -0.9464
vn 0.0121 0.2005 0.9796
vn -0.0370 0.0225 0.9991
vn -0.0005 0.0103 0.9999
vn -0.0370 0.9991 0.0218
vn 0.0113 0.9809 0.1941
vn -0.0008 1.0000 0.0095
vn -0.0037 -0.0365 0.9993
vn -0.0773 -0.3176 0.9451
vn 0.0228 -0.3371 0.9412
vn -0.2840 -0.4029 -0.8701
vn -0.1526 -0.0913 -0.9841
vn -0.1854 -0.4386 -0.8794
vn 0.0672 0.0792 0.9946
vn -0.0430 -0.2308 0.9721
vn 0.1039 -0.3944 0.9131
vn -0.0541 -0.0318 -0.9980
vn 0.0180 -0.2907 -0.9566
vn -0.1170 -0.4348 -0.8929
vn -0.0341 -0.2230 -0.9742
vn 0.0667 0.0792 -0.9946
vn 0.1025 -0.3951 -0.9129
vn 0.6757 -0.7128 -0.1882
vn 0.6561 0.1334 0.7428
vn 0.3713 -0.6557 0.6574
vn -0.9948 -0.0748 -0.0697
vn -0.5783 -0.4995 -0.6450
vn -0.7136 -0.6923 -0.1069
vn -0.1458 -0.0813 0.9860
vn -0.2783 -0.3987 0.8738
vn -0.1477 -0.4073 0.9013
vn -0.5783 -0.4995 0.6450
vn -0.9948 -0.0748 0.0697
vn -0.7136 -0.6923 0.1069
vn 0.6561 0.1334 -0.7428
vn 0.6757 -0.7128 0.1882
vn 0.3713 -0.6557 -0.6574
vn -0.0776 0.9453 -0.3167
vn -0.0045 0.9994 -0.0352
vn 0.0198 0.9435 -0.3307
vn -0.1901 -0.7941 -0.5773
vn -0.0748 -0.9517 -0.2978
vn -0.2384 -0.9455 -0.2219
vn -0.0594 0.9801 -0.1896
vn 0.0490 0.9884 0.1440
vn 0.0981 0.9223 -0.3738
vn 0.0158 -0.9570 -0.2897
vn -0.0544 -0.9980 -0.0320
vn -0.1171 -0.8930 -0.4346
vn 0.7584 -0.0600 -0.6490
vn 0.7667 0.6377 0.0738
vn 0.9984 0.0398 -0.0400
vn -0.0175 -0.9828 -0.1839
vn 0.0450 -0.9977 0.0516
vn 0.0005 -1.0000 -0.0048
vn -0.5783 0.6450 0.4995
vn -0.9948 0.0697 0.0748
vn -0.7136 0.1069 0.6923
vn -0.2783 0.8738 -0.3987
vn -0.1458 0.9860 -0.0813
vn -0.1477 0.9013 -0.4073
vn -0.0748 0.9517 0.2978
vn -0.2384 0.9455 0.2219
vn -0.1901 0.7941 0.5773
vn -0.1526 0.0913 0.9841
vn -0.1854 0.4386 0.8794
vn -0.2840 0.4029 0.8701
vn -0.9948 0.0748 -0.0697
vn -0.7136 0.6923 -0.1069
vn -0.5783 0.4995 -0.6450
vn 0.0490 -0.9884 -0.1440
vn 0.0981 -0.9223 0.3738
vn -0.0594 -0.9801 0.1896
vn 0.6757 0.7128 -0.1882
vn 0.3713 0.6557 0.6574
vn 0.6561 -0.1334 0.7428
vn -0.0430 0.2308 -0.9721
vn 0.1039 0.3944 -0.9131
vn 0.0672 -0.0792 -0.9946
vn -0.0773 0.3176 -0.9451
vn 0.0228 0.3371 -0.9412
vn -0.0037 0.0365 -0.9993
vn -0.0045 -0.9994 0.0352
vn 0.0198 -0.9435 0.3307
vn -0.0776 -0.9453 0.3167
vn 0.0667 -0.0792 0.9946
vn 0.1025 0.3951 0.9129
vn -0.0341 0.2230 0.9742
vn 0.0450 0.9977 -0.0516
vn 0.0005 1.0000 0.0048
vn -0.0175 0.9828 0.1839
vn -0.1458 -0.9860 0.0813
vn -0.1477 -0.9013 0.4073
vn -0.2783 -0.8738 0.3987
vn -0.2783 0.3987 -0.8738
vn -0.1477 0.4073 -0.9013
vn -0.1458 0.0813 -0.9860
vn 0.0180 0.2907 0.9566
vn -0.1170 0.4348 0.8929
vn -0.0541 0.0318 0.9980
vn -0.0544 0.9980 0.0320
vn -0.1171 0.8930 0.4346
vn 0.0158 0.9570 0.2897
vn -0.0056 -0.0239 0.9997
vn -0.0569 -0.0109 0.9983
vn -0.0616 -0.2646 0.9624
vn -0.1901 -0.5773 -0.7941
vn -0.2384 -0.2219 -0.9455
vn -0.0748 -0.2978 -0.9517
vn 0.0520 0.0335 0.9981
vn 0.0017 -0.0132 0.9999
vn -0.0013 -0.2323 0.9727
vn -0.0370 -0.0225 -0.9991
vn -0.0005 -0.0103 -0.9999
vn 0.0121 -0.2005 -0.9796
vn -0.0124 -0.1977 -0.9802
vn 0.0016 -0.0068 -1.0000
vn 0.0524 0.0320 -0.9981
vn 0.7667 -0.6377 -0.0738
vn 0.9984 -0.0398 0.0400
vn 0.7584 0.0600 0.6490
vn -0.9948 -0.0697 -0.0748
vn -0.7136 -0.1069 -0.6923
vn -0.5783 -0.6450 -0.4995
vn -0.0515 -0.2852 0.9571
vn -0.2364 -0.2201 0.9464
vn -0.1831 -0.5786 0.7948
vn -0.5783 -0.6450 0.4995
vn -0.7136 -0.1069 0.6923
vn -0.9948 -0.0697 0.0748
vn 0.7584 0.0600 -0.6490
vn 0.9984 -0.0398 -0.0400
vn 0.7667 -0.6377 0.0738
vn -0.0616 0.9624 -0.2646
vn -0.0569 0.9983 -0.0109
vn -0.0056 0.9997 -0.0239
vn -0.2840 -0.8701 -0.4029
vn -0.1854 -0.8794 -0.4386
vn -0.1526 -0.9841 -0.0913
vn -0.0070 0.9761 -0.2172
vn 0.0004 0.9999 -0.0106
vn 0.0443 0.9976 0.0537
vn 0.0113 -0.9809 -0.1941
vn -0.0008 -1.0000 -0.0095
vn -0.0370 -0.9991 -0.0218
vn 0.6561 -0.1334 -0.7428
vn 0.3713 0.6557 -0.6574
vn 0.6757 0.7128 0.1882
vn -0.0489 -0.9824 -0.1800
vn 0.0967 -0.9222 -0.3746
vn 0.0487 -0.9884 0.1439
vn -0.5783 0.4995 0.6450
vn -0.7136 0.6923 0.1069
vn -0.9948 0.0748 0.0697
vn -0.1831 0.7948 -0.5786
vn -0.2364 0.9464 -0.2201
vn -0.0515 0.9571 -0.2852
vt 0.688057 0.630824
vt 0.716594 0.686664
vt 0.705741 0.708462
vt 0.684778 0.699000
vt 0.747877 0.747878
vt 0.716208 0.747878
vt 0.684538 0.747878
vt 0.382947 0.935935
vt 0.438786 0.964472
vt 0.417550 0.975612
vt 0.376530 0.970776
vt 0.500000 0.995755
vt 0.438031 0.995755
vt 0.376061 0.995755
vt 0.376061 0.128184
vt 0.438031 0.190300
vt 0.415653 0.211426
vt 0.376061 0.201794
vt 0.500000 0.252122
vt 0.425407 0.245389
vt 0.376061 0.244267
vt 0.252491 0.623939
vt 0.191406 0.686195
vt 0.170437 0.665596
vt 0.179429 0.625144
vt 0.130923 0.747878
vt 0.136495 0.686826
vt 0.130412 0.635506
vt 0.499631 0.623939
vt 0.438000 0.685878
vt 0.415644 0.663521
vt 0.425383 0.623939
vt 0.376061 0.747509
vt 0.376061 0.673261
vt 0.376061 0.623939
vt 0.500000 0.378801
vt 0.438317 0.439284
vt 0.417718 0.418314
vt 0.438949 0.384373
vt 0.376061 0.500369
vt 0.377266 0.427307
vt 0.387629 0.378289
vt 0.500000 0.315461
vt 0.438949 0.347224
vt 0.417543 0.336470
vt 0.437562 0.315222
vt 0.376798 0.346985
vt 0.369176 0.311943
vt 0.099347 0.686826
vt 0.088592 0.665420
vt 0.099107 0.624675
vt 0.067584 0.747878
vt 0.067344 0.685440
vt 0.064065 0.617053
vt 0.438031 0.808594
vt 0.415308 0.829563
vt 0.374856 0.820571
vt 0.500000 0.869077
vt 0.424489 0.863505
vt 0.364494 0.869588
vt 0.560716 0.685908
vt 0.540353 0.708286
vt 0.499984 0.698525
vt 0.621199 0.747878
vt 0.560600 0.747878
vt 0.500000 0.747878
vt 0.035528 0.685440
vt 0.024388 0.665076
vt 0.029224 0.623470
vt 0.004245 0.747878
vt 0.004245 0.685908
vt 0.004245 0.623939
vt 0.437275 0.283266
vt 0.415477 0.271161
vt 0.375593 0.276119
vt 0.438499 0.900852
vt 0.415484 0.889491
vt 0.375325 0.900893
vt 0.652974 0.686377
vt 0.641614 0.663362
vt 0.653015 0.623202
vt 0.615627 0.672367
vt 0.621711 0.612371
vt 0.313174 0.900653
vt 0.293091 0.889402
vt 0.313174 0.863505
vt 0.252122 0.932416
vt 0.252122 0.900747
vt 0.252122 0.869077
vt 0.252122 0.252122
vt 0.313623 0.283266
vt 0.291538 0.294259
vt 0.252122 0.283792
vt 0.301000 0.315222
vt 0.252122 0.315461
vt 0.313805 0.808594
vt 0.291714 0.788230
vt 0.301475 0.747862
vt 0.252122 0.808477
vt 0.252122 0.747878
vt 0.313623 0.347026
vt 0.291538 0.336485
vt 0.252122 0.378801
vt 0.252122 0.347131
vt 0.314092 0.439284
vt 0.291714 0.459647
vt 0.252122 0.439400
vt 0.301475 0.500016
vt 0.252122 0.500000
vt 0.314122 0.685878
vt 0.291761 0.708239
vt 0.252138 0.698525
vt 0.314092 0.190300
vt 0.291714 0.169496
vt 0.301468 0.128184
vt 0.252122 0.190153
vt 0.252122 0.128184
vt 0.314560 0.964472
vt 0.293611 0.953619
vt 0.314560 0.932656
vt 0.252122 0.995755
vt 0.252122 0.964086
vt 0.252122 0.004245
vt 0.313805 0.065927
vt 0.291714 0.086871
vt 0.252122 0.066214
vt 0.314122 0.561999
vt 0.291761 0.539638
vt 0.252138 0.549352
vt 0.684538 0.500000
vt 0.652776 0.561051
vt 0.641524 0.540969
vt 0.652869 0.500000
vt 0.615627 0.561051
vt 0.621199 0.500000
vt 0.004245 0.500000
vt 0.035528 0.561214
vt 0.024388 0.582450
vt 0.004245 0.561970
vt 0.560716 0.561683
vt 0.540353 0.539591
vt 0.560600 0.500000
vt 0.499984 0.549352
vt 0.500000 0.500000
vt 0.130923 0.500000
vt 0.099148 0.561501
vt 0.088607 0.539416
vt 0.099253 0.500000
vt 0.067344 0.548878
vt 0.067584 0.500000
vt 0.438000 0.562000
vt 0.415644 0.584356
vt 0.376061 0.574617
vt 0.191406 0.561969
vt 0.170437 0.584692
vt 0.136495 0.575511
vt 0.500000 0.004245
vt 0.438317 0.065927
vt 0.417374 0.043836
vt 0.438031 0.004245
vt 0.376061 0.053591
vt 0.376061 0.004245
vt 0.747877 0.500000
vt 0.716594 0.562438
vt 0.705741 0.541489
vt 0.716208 0.500000
vt 0.684778 0.562438
vt 0.722899 0.624407
vt 0.727734 0.665427
vt 0.747877 0.623939
vt 0.747878 0.685908
vt 0.451122 0.932656
vt 0.460584 0.953619
vt 0.500000 0.932416
vt 0.500000 0.964086
vt 0.450654 0.128184
vt 0.460408 0.169496
vt 0.500000 0.128184
vt 0.500000 0.190153
vt 0.211770 0.708286
vt 0.191523 0.747878
vt 0.460361 0.708239
vt 0.450648 0.747862
vt 0.500000 0.439400
vt 0.460408 0.459647
vt 0.450648 0.500016
vt 0.500000 0.347131
vt 0.459031 0.358476
vt 0.110598 0.706909
vt 0.099253 0.747878
vt 0.460408 0.788230
vt 0.500000 0.808477
vt 0.572693 0.622734
vt 0.581686 0.663186
vt 0.046381 0.706389
vt 0.035914 0.747878
vt 0.500000 0.283792
vt 0.458511 0.294259
vt 0.500000 0.900747
vt 0.460584 0.911393
vt 0.663515 0.708462
vt 0.652869 0.747878
vt 0.334580 0.911408
vt 0.326715 0.245389
vt 0.336294 0.271161
vt 0.334404 0.829563
vt 0.336638 0.358386
vt 0.327633 0.384373
vt 0.336814 0.418314
vt 0.326739 0.623939
vt 0.336478 0.663521
vt 0.336470 0.211426
vt 0.334924 0.975612
vt 0.314092 0.995755
vt 0.314092 0.004245
vt 0.334748 0.043836
vt 0.336478 0.584356
vt 0.663530 0.582457
vt 0.035914 0.500000
vt 0.046381 0.539416
vt 0.581686 0.582282
vt 0.110509 0.584516
vt 0.460362 0.539638
vt 0.191523 0.500000
vt 0.211769 0.539591
vt 0.500000 0.066214
vt 0.460408 0.086871
vt 0.747878 0.561970
vt 0.727734 0.582801
s 0
usemtl Material
f 32/1/1 99/2/1 131/3/1 62/4/1
f 7/5/2 41/6/2 131/3/2 99/2/2
f 14/7/3 62/4/3 131/3/3 41/6/3
f 24/8/4 100/9/4 132/10/4 78/11/4
f 7/12/5 38/13/5 132/10/5 100/9/5
f 18/14/6 78/11/6 132/10/6 38/13/6
f 34/15/7 101/16/7 133/17/7 77/18/7
f 5/19/8 66/20/8 133/17/8 101/16/8
f 20/21/9 77/18/9 133/17/9 66/20/9
f 28/22/10 102/23/10 134/24/10 96/25/10
f 11/26/11 52/27/11 134/24/11 102/23/11
f 29/28/12 96/25/12 134/24/12 52/27/12
f 26/29/13 103/30/13 135/31/13 95/32/13
f 19/33/14 76/34/14 135/31/14 103/30/14
f 33/35/15 95/32/15 135/31/15 76/34/15
f 12/36/16 104/37/16 136/38/16 67/39/16
f 17/40/17 75/41/17 136/38/17 104/37/17
f 21/42/18 67/39/18 136/38/18 75/41/18
f 16/43/19 105/44/19 137/45/19 69/46/19
f 21/42/20 74/47/20 137/45/20 105/44/20
f 23/48/21 69/46/21 137/45/21 74/47/21
f 29/28/22 106/49/22 138/50/22 94/51/22
f 15/52/23 59/53/23 138/50/23 106/49/23
f 31/54/24 94/51/24 138/50/24 59/53/24
f 19/33/25 107/55/25 139/56/25 73/57/25
f 10/58/26 68/59/26 139/56/26 107/55/26
f 22/60/27 73/57/27 139/56/27 68/59/27
f 26/29/28 108/61/28 140/62/28 42/63/28
f 10/64/29 48/65/29 140/62/29 108/61/29
f 3/66/30 42/63/30 140/62/30 48/65/30
f 31/54/31 109/67/31 141/68/31 92/69/31
f 8/70/32 35/71/32 141/68/32 109/67/32
f 25/72/33 92/69/33 141/68/33 35/71/33
f 5/19/34 110/73/34 142/74/34 66/20/34
f 23/48/35 72/75/35 142/74/35 110/73/35
f 20/21/36 66/20/36 142/74/36 72/75/36
f 10/58/37 111/76/37 143/77/37 68/59/37
f 24/8/38 71/78/38 143/77/38 111/76/38
f 22/60/39 68/59/39 143/77/39 71/78/39
f 32/1/40 112/79/40 144/80/40 91/81/40
f 10/64/41 54/82/41 144/80/41 112/79/41
f 30/83/42 91/81/42 144/80/42 54/82/42
f 22/60/43 113/84/43 145/85/43 53/86/43
f 15/87/44 49/88/44 145/85/44 113/84/44
f 11/89/45 53/86/45 145/85/45 49/88/45
f 6/90/46 114/91/46 146/92/46 36/93/46
f 23/48/47 60/94/47 146/92/47 114/91/47
f 13/95/48 36/93/48 146/92/48 60/94/48
f 19/33/49 115/96/49 147/97/49 39/98/49
f 11/89/50 43/99/50 147/97/50 115/96/50
f 4/100/51 39/98/51 147/97/51 43/99/51
f 23/48/52 116/101/52 148/102/52 60/94/52
f 9/103/53 55/104/53 148/102/53 116/101/53
f 13/95/54 60/94/54 148/102/54 55/104/54
f 9/103/55 117/105/55 149/106/55 47/107/55
f 17/40/56 37/108/56 149/106/56 117/105/56
f 2/109/57 47/107/57 149/106/57 37/108/57
f 28/22/58 118/110/58 150/111/58 82/112/58
f 19/33/59 39/98/59 150/111/59 118/110/59
f 4/100/60 82/112/60 150/111/60 39/98/60
f 34/15/61 119/113/61 151/114/61 89/115/61
f 6/90/62 79/116/62 151/114/62 119/113/62
f 25/117/63 89/115/63 151/114/63 79/116/63
f 24/8/64 120/118/64 152/119/64 61/120/64
f 8/121/65 57/122/65 152/119/65 120/118/65
f 15/87/66 61/120/66 152/119/66 57/122/66
f 8/123/67 121/124/67 153/125/67 35/126/67
f 34/15/68 89/115/68 153/125/68 121/124/68
f 25/117/69 35/126/69 153/125/69 89/115/69
f 17/40/70 122/127/70 154/128/70 37/108/70
f 28/22/71 46/129/71 154/128/71 122/127/71
f 2/109/72 37/108/72 154/128/72 46/129/72
f 16/130/73 123/131/73 155/132/73 50/133/73
f 30/83/74 84/134/74 155/132/74 123/131/74
f 12/135/75 50/133/75 155/132/75 84/134/75
f 6/136/76 124/137/76 156/138/76 79/139/76
f 31/54/77 92/69/77 156/138/77 124/137/77
f 25/72/78 79/139/78 156/138/78 92/69/78
f 12/135/79 125/140/79 157/141/79 45/142/79
f 26/29/80 80/143/80 157/141/80 125/140/80
f 1/144/81 45/142/81 157/141/81 80/143/81
f 9/145/82 126/146/82 158/147/82 55/148/82
f 31/54/83 85/149/83 158/147/83 126/146/83
f 13/150/84 55/148/84 158/147/84 85/149/84
f 17/40/85 127/151/85 159/152/85 87/153/85
f 26/29/86 95/32/86 159/152/86 127/151/86
f 33/35/87 87/153/87 159/152/87 95/32/87
f 9/145/88 128/154/88 160/155/88 83/156/88
f 28/22/89 96/25/89 160/155/89 128/154/89
f 29/28/90 83/156/90 160/155/90 96/25/90
f 7/157/91 129/158/91 161/159/91 38/160/91
f 34/15/92 88/161/92 161/159/92 129/158/92
f 18/162/93 38/160/93 161/159/93 88/161/93
f 5/163/94 130/164/94 162/165/94 58/166/94
f 32/1/95 86/167/95 162/165/95 130/164/95
f 16/130/96 58/166/96 162/165/96 86/167/96
f 32/1/97 98/168/97 163/169/97 99/2/97
f 27/170/98 81/171/98 163/169/98 98/168/98
f 7/5/99 99/2/99 163/169/99 81/171/99
f 24/8/100 70/172/100 164/173/100 100/9/100
f 14/174/101 41/175/101 164/173/101 70/172/101
f 7/12/102 100/9/102 164/173/102 41/175/102
f 34/15/103 97/176/103 165/177/103 101/16/103
f 27/178/104 44/179/104 165/177/104 97/176/104
f 5/19/105 101/16/105 165/177/105 44/179/105
f 28/22/106 82/112/106 166/180/106 102/23/106
f 4/100/107 43/181/107 166/180/107 82/112/107
f 11/26/108 102/23/108 166/180/108 43/181/108
f 26/29/109 42/63/109 167/182/109 103/30/109
f 3/66/110 65/183/110 167/182/110 42/63/110
f 19/33/111 103/30/111 167/182/111 65/183/111
f 12/36/112 45/184/112 168/185/112 104/37/112
f 1/144/113 63/186/113 168/185/113 45/184/113
f 17/40/114 104/37/114 168/185/114 63/186/114
f 16/43/115 50/187/115 169/188/115 105/44/115
f 12/36/116 67/39/116 169/188/116 50/187/116
f 21/42/117 105/44/117 169/188/117 67/39/117
f 29/28/118 52/27/118 170/189/118 106/49/118
f 11/26/119 49/190/119 170/189/119 52/27/119
f 15/52/120 106/49/120 170/189/120 49/190/120
f 19/33/121 65/183/121 171/191/121 107/55/121
f 3/66/122 48/192/122 171/191/122 65/183/122
f 10/58/123 107/55/123 171/191/123 48/192/123
f 26/29/124 93/193/124 172/194/124 108/61/124
f 30/83/125 54/82/125 172/194/125 93/193/125
f 10/64/126 108/61/126 172/194/126 54/82/126
f 31/54/127 59/53/127 173/195/127 109/67/127
f 15/52/128 57/196/128 173/195/128 59/53/128
f 8/70/129 109/67/129 173/195/129 57/196/129
f 5/19/130 58/197/130 174/198/130 110/73/130
f 16/43/131 69/46/131 174/198/131 58/197/131
f 23/48/132 110/73/132 174/198/132 69/46/132
f 10/58/133 56/199/133 175/200/133 111/76/133
f 14/174/134 70/172/134 175/200/134 56/199/134
f 24/8/135 111/76/135 175/200/135 70/172/135
f 32/1/136 62/4/136 176/201/136 112/79/136
f 14/7/137 56/202/137 176/201/137 62/4/137
f 10/64/138 112/79/138 176/201/138 56/202/138
f 22/60/139 71/78/139 177/203/139 113/84/139
f 24/8/140 61/120/140 177/203/140 71/78/140
f 15/87/141 113/84/141 177/203/141 61/120/141
f 6/90/142 40/204/142 178/205/142 114/91/142
f 20/21/143 72/75/143 178/205/143 40/204/143
f 23/48/144 114/91/144 178/205/144 72/75/144
f 19/33/145 73/57/145 179/206/145 115/96/145
f 22/60/146 53/86/146 179/206/146 73/57/146
f 11/89/147 115/96/147 179/206/147 53/86/147
f 23/48/148 74/47/148 180/207/148 116/101/148
f 21/42/149 51/208/149 180/207/149 74/47/149
f 9/103/150 116/101/150 180/207/150 51/208/150
f 9/103/151 51/208/151 181/209/151 117/105/151
f 21/42/152 75/41/152 181/209/152 51/208/152
f 17/40/153 117/105/153 181/209/153 75/41/153
f 28/22/154 90/210/154 182/211/154 118/110/154
f 33/35/155 76/34/155 182/211/155 90/210/155
f 19/33/156 118/110/156 182/211/156 76/34/156
f 34/15/157 77/18/157 183/212/157 119/113/157
f 20/21/158 40/204/158 183/212/158 77/18/158
f 6/90/159 119/113/159 183/212/159 40/204/159
f 24/8/160 78/11/160 184/213/160 120/118/160
f 18/14/161 64/214/161 184/213/161 78/11/161
f 8/121/162 120/118/162 184/213/162 64/214/162
f 8/123/163 64/215/163 185/216/163 121/124/163
f 18/162/164 88/161/164 185/216/164 64/215/164
f 34/15/165 121/124/165 185/216/165 88/161/165
f 17/40/166 87/153/166 186/217/166 122/127/166
f 33/35/167 90/210/167 186/217/167 87/153/167
f 28/22/168 122/127/168 186/217/168 90/210/168
f 16/130/169 86/167/169 187/218/169 123/131/169
f 32/1/170 91/81/170 187/218/170 86/167/170
f 30/83/171 123/131/171 187/218/171 91/81/171
f 6/136/172 36/219/172 188/220/172 124/137/172
f 13/150/173 85/149/173 188/220/173 36/219/173
f 31/54/174 124/137/174 188/220/174 85/149/174
f 12/135/175 84/134/175 189/221/175 125/140/175
f 30/83/176 93/193/176 189/221/176 84/134/176
f 26/29/177 125/140/177 189/221/177 93/193/177
f 9/145/178 83/156/178 190/222/178 126/146/178
f 29/28/179 94/51/179 190/222/179 83/156/179
f 31/54/180 126/146/180 190/222/180 94/51/180
f 17/40/181 63/186/181 191/223/181 127/151/181
f 1/144/182 80/143/182 191/223/182 63/186/182
f 26/29/183 127/151/183 191/223/183 80/143/183
f 9/145/184 47/224/184 192/225/184 128/154/184
f 2/109/185 46/129/185 192/225/185 47/224/185
f 28/22/186 128/154/186 192/225/186 46/129/186
f 7/157/187 81/226/187 193/227/187 129/158/187
f 27/178/188 97/176/188 193/227/188 81/226/188
f 34/15/189 129/158/189 193/227/189 97/176/189
f 5/163/190 44/228/190 194/229/190 130/164/190
f 27/170/191 98/168/191 194/229/191 44/228/191
f 32/1/192 130/164/192 194/229/192 98/168/192
