# Blender 4.5.1 LTS
# www.blender.org
mtllib skydome.mtl
o Sphere
v -0.000000 8.321729 -5.560401
v -0.000000 5.560401 -8.321729
v -0.000000 1.952553 -9.816148
v -0.000000 0.000000 -10.008458
v -0.000000 -1.952553 -9.816148
v -0.000000 -5.560401 -8.321729
v 0.380924 9.816148 -1.915035
v 0.747209 9.246610 -3.756477
v 1.084780 8.321729 -5.453560
v 1.380663 7.077048 -6.941065
v 1.623488 5.560401 -8.161829
v 1.803923 3.830071 -9.068938
v 1.915035 1.952553 -9.627533
v 1.952553 0.000000 -9.816148
v 1.915035 -1.952553 -9.627533
v 1.803923 -3.830071 -9.068938
v 1.623488 -5.560401 -8.161829
v 1.380663 -7.077048 -6.941065
v 1.084780 -8.321729 -5.453560
v 0.747209 -9.246610 -3.756477
v 0.380924 -9.816148 -1.915035
v 0.747209 9.816148 -1.803924
v 1.465704 9.246610 -3.538524
v 2.127873 8.321729 -5.137141
v 2.708269 7.077048 -6.538340
v 3.184587 5.560401 -7.688273
v 3.538524 3.830071 -8.542753
v 3.756477 1.952553 -9.068938
v 3.830071 0.000000 -9.246609
v 3.756477 -1.952553 -9.068938
v 3.538524 -3.830071 -8.542753
v 3.184587 -5.560401 -7.688273
v 2.708269 -7.077048 -6.538340
v 2.127873 -8.321729 -5.137141
v 1.465704 -9.246610 -3.538524
v 0.747209 -9.816148 -1.803924
v 1.084780 9.816148 -1.623488
v 2.127873 9.246610 -3.184587
v 3.089193 8.321729 -4.623304
v 3.931797 7.077048 -5.884351
v 4.623304 5.560401 -6.919263
v 5.137140 3.830071 -7.688274
v 5.453559 1.952553 -8.161829
v 5.560401 0.000000 -8.321728
v 5.453559 -1.952553 -8.161829
v 5.137140 -3.830071 -7.688274
v 4.623304 -5.560401 -6.919263
v 3.931797 -7.077048 -5.884351
v 3.089193 -8.321729 -4.623304
v 2.127873 -9.246610 -3.184587
v 1.084780 -9.816148 -1.623488
v 1.380663 9.816148 -1.380663
v 2.708269 9.246610 -2.708269
v 3.931797 8.321729 -3.931796
v 5.004229 7.077048 -5.004229
v 5.884349 5.560401 -5.884349
v 6.538339 3.830071 -6.538340
v 6.941064 1.952553 -6.941064
v 7.077048 0.000000 -7.077047
v 6.941064 -1.952553 -6.941064
v 6.538339 -3.830071 -6.538340
v 5.884349 -5.560401 -5.884349
v 5.004229 -7.077048 -5.004229
v 3.931797 -8.321729 -3.931796
v 2.708269 -9.246610 -2.708269
v 1.380663 -9.816148 -1.380663
v 1.623488 9.816148 -1.084780
v 3.184587 9.246610 -2.127873
v 4.623304 8.321729 -3.089192
v 5.884350 7.077048 -3.931797
v 6.919263 5.560401 -4.623303
v 7.688273 3.830071 -5.137141
v 8.161828 1.952553 -5.453559
v 8.321728 0.000000 -5.560399
v 8.161828 -1.952553 -5.453559
v 7.688273 -3.830071 -5.137141
v 6.919263 -5.560401 -4.623303
v 5.884350 -7.077048 -3.931797
v 4.623304 -8.321729 -3.089192
v 3.184587 -9.246610 -2.127873
v 1.623488 -9.816148 -1.084780
v -0.000000 10.008458 0.000000
v 1.803923 9.816148 -0.747209
v 3.538524 9.246610 -1.465704
v 5.137140 8.321729 -2.127873
v 6.538340 7.077048 -2.708269
v 7.688273 5.560401 -3.184586
v 8.542752 3.830071 -3.538524
v 9.068937 1.952553 -3.756476
v 9.246608 0.000000 -3.830069
v 9.068937 -1.952553 -3.756476
v 8.542752 -3.830071 -3.538524
v 7.688273 -5.560401 -3.184586
v 6.538340 -7.077048 -2.708269
v 5.137140 -8.321729 -2.127873
v 3.538524 -9.246610 -1.465704
v 1.803923 -9.816148 -0.747209
v 1.915035 9.816148 -0.380924
v 3.756477 9.246610 -0.747209
v 5.453559 8.321729 -1.084780
v 6.941064 7.077048 -1.380664
v 8.161827 5.560401 -1.623487
v 9.068937 3.830071 -1.803924
v 9.627532 1.952553 -1.915034
v 9.816146 0.000000 -1.952551
v 9.627532 -1.952553 -1.915034
v 9.068937 -3.830071 -1.803924
v 8.161827 -5.560401 -1.623487
v 6.941064 -7.077048 -1.380664
v 5.453559 -8.321729 -1.084780
v 3.756477 -9.246610 -0.747209
v 1.915035 -9.816148 -0.380924
v 1.952552 9.816148 0.000000
v 3.830070 9.246610 0.000000
v 5.560400 8.321729 0.000001
v 7.077047 7.077048 0.000000
v 8.321726 5.560401 0.000001
v 9.246608 3.830071 -0.000000
v 9.816146 1.952553 0.000001
v 10.008454 0.000000 0.000002
v 9.816146 -1.952553 0.000001
v 9.246608 -3.830071 -0.000000
v 8.321726 -5.560401 0.000001
v 7.077047 -7.077048 0.000000
v 5.560400 -8.321729 0.000001
v 3.830070 -9.246610 0.000000
v 1.952552 -9.816148 0.000000
v 1.915035 9.816148 0.380924
v 3.756477 9.246610 0.747210
v 5.453558 8.321729 1.084781
v 6.941063 7.077048 1.380664
v 8.161826 5.560401 1.623489
v 9.068937 3.830071 1.803924
v 9.627531 1.952553 1.915036
v 9.816145 0.000000 1.952555
v 9.627531 -1.952553 1.915036
v 9.068937 -3.830071 1.803924
v 8.161826 -5.560401 1.623489
v 6.941063 -7.077048 1.380664
v 5.453558 -8.321729 1.084781
v 3.756477 -9.246610 0.747210
v 1.915035 -9.816148 0.380924
v 1.803923 9.816148 0.747210
v 3.538524 9.246610 1.465705
v 5.137139 8.321729 2.127874
v 6.538339 7.077048 2.708269
v 7.688272 5.560401 3.184588
v 8.542752 3.830071 3.538524
v 9.068935 1.952553 3.756478
v 9.246605 0.000000 3.830072
v 9.068935 -1.952553 3.756478
v 8.542752 -3.830071 3.538524
v 7.688272 -5.560401 3.184588
v 6.538339 -7.077048 2.708269
v 5.137139 -8.321729 2.127874
v 3.538524 -9.246610 1.465705
v 1.803923 -9.816148 0.747210
v 1.623487 9.816148 1.084780
v 3.184587 9.246610 2.127874
v 4.623302 8.321729 3.089193
v 5.884349 7.077048 3.931798
v 6.919261 5.560401 4.623304
v 7.688273 3.830071 5.137140
v 8.161826 1.952553 5.453559
v 8.321723 0.000000 5.560401
v 8.161826 -1.952553 5.453559
v 7.688273 -3.830071 5.137140
v 6.919261 -5.560401 4.623304
v 5.884349 -7.077048 3.931798
v 4.623302 -8.321729 3.089193
v 3.184587 -9.246610 2.127874
v 1.623487 -9.816148 1.084780
v 1.380663 9.816148 1.380663
v 2.708268 9.246610 2.708269
v 3.931795 8.321729 3.931798
v 5.004228 7.077048 5.004229
v 5.884347 5.560401 5.884349
v 6.538339 3.830071 6.538339
v 6.941062 1.952553 6.941064
v 7.077043 0.000000 7.077047
v 6.941062 -1.952553 6.941064
v 6.538339 -3.830071 6.538339
v 5.884347 -5.560401 5.884349
v 5.004228 -7.077048 5.004229
v 3.931795 -8.321729 3.931798
v 2.708268 -9.246610 2.708269
v 1.380663 -9.816148 1.380663
v 1.084780 9.816148 1.623488
v 2.127872 9.246610 3.184588
v 3.089191 8.321729 4.623304
v 3.931797 7.077048 5.884350
v 4.623302 5.560401 6.919263
v 5.137140 3.830071 7.688273
v 5.453557 1.952553 8.161827
v 5.560396 0.000000 8.321726
v 5.453557 -1.952553 8.161827
v 5.137140 -3.830071 7.688273
v 4.623302 -5.560401 6.919263
v 3.931797 -7.077048 5.884350
v 3.089191 -8.321729 4.623304
v 2.127872 -9.246610 3.184588
v 1.084780 -9.816148 1.623488
v 0.747209 9.816148 1.803923
v 1.465703 9.246610 3.538524
v 2.127871 8.321729 5.137139
v 2.708268 7.077048 6.538340
v 3.184585 5.560401 7.688272
v 3.538524 3.830071 8.542751
v 3.756474 1.952553 9.068936
v 3.830066 0.000000 9.246607
v 3.756474 -1.952553 9.068936
v 3.538524 -3.830071 8.542751
v 3.184585 -5.560401 7.688272
v 2.708268 -7.077048 6.538340
v 2.127871 -8.321729 5.137139
v 1.465703 -9.246610 3.538524
v 0.747209 -9.816148 1.803923
v 0.380924 9.816148 1.915035
v 0.747209 9.246610 3.756477
v 1.084779 8.321729 5.453557
v 1.380663 7.077048 6.941064
v 1.623487 5.560401 8.161826
v 1.803923 3.830071 9.068936
v 1.915033 1.952553 9.627531
v 1.952549 0.000000 9.816143
v 1.915033 -1.952553 9.627531
v 1.803923 -3.830071 9.068936
v 1.623487 -5.560401 8.161826
v 1.380663 -7.077048 6.941064
v 1.084779 -8.321729 5.453557
v 0.747209 -9.246610 3.756477
v 0.380924 -9.816148 1.915035
v -0.000000 9.816148 1.952552
v -0.000001 9.246610 3.830070
v -0.000001 8.321729 5.560399
v -0.000001 7.077048 7.077047
v -0.000001 5.560401 8.321726
v -0.000000 3.830071 9.246607
v -0.000002 1.952553 9.816145
v -0.000004 0.000000 10.008451
v -0.000002 -1.952553 9.816145
v -0.000000 -3.830071 9.246607
v -0.000001 -5.560401 8.321726
v -0.000001 -7.077048 7.077047
v -0.000001 -8.321729 5.560399
v -0.000001 -9.246610 3.830070
v -0.000000 -9.816148 1.952552
v -0.380924 9.816148 1.915034
v -0.747211 9.246610 3.756477
v -1.084781 8.321729 5.453557
v -1.380664 7.077048 6.941063
v -1.623490 5.560401 8.161825
v -1.803924 3.830071 9.068935
v -1.915037 1.952553 9.627530
v -1.952556 0.000000 9.816141
v -1.915037 -1.952553 9.627530
v -1.803924 -3.830071 9.068935
v -1.623490 -5.560401 8.161825
v -1.380664 -7.077048 6.941063
v -1.084781 -8.321729 5.453557
v -0.747211 -9.246610 3.756477
v -0.380924 -9.816148 1.915034
v -0.747210 9.816148 1.803923
v -1.465705 9.246610 3.538524
v -2.127874 8.321729 5.137137
v -2.708269 7.077048 6.538339
v -3.184588 5.560401 7.688271
v -3.538523 3.830071 8.542750
v -3.756478 1.952553 9.068934
v -3.830072 0.000000 9.246602
v -3.756478 -1.952553 9.068934
v -3.538523 -3.830071 8.542750
v -3.184588 -5.560401 7.688271
v -2.708269 -7.077048 6.538339
v -2.127874 -8.321729 5.137137
v -1.465705 -9.246610 3.538524
v -0.747210 -9.816148 1.803923
v -1.084780 9.816148 1.623488
v -2.127874 9.246610 3.184587
v -3.089193 8.321729 4.623302
v -3.931798 7.077048 5.884349
v -4.623304 5.560401 6.919261
v -5.137139 3.830071 7.688272
v -5.453560 1.952553 8.161825
v -5.560401 0.000000 8.321720
v -5.453560 -1.952553 8.161825
v -5.137139 -3.830071 7.688272
v -4.623304 -5.560401 6.919261
v -3.931798 -7.077048 5.884349
v -3.089193 -8.321729 4.623302
v -2.127874 -9.246610 3.184587
v -1.084780 -9.816148 1.623488
v -1.380663 9.816148 1.380663
v -2.708269 9.246610 2.708268
v -3.931796 8.321729 3.931794
v -5.004229 7.077048 5.004228
v -5.884349 5.560401 5.884347
v -6.538338 3.830071 6.538338
v -6.941064 1.952553 6.941061
v -7.077046 0.000000 7.077040
v -6.941064 -1.952553 6.941061
v -6.538338 -3.830071 6.538338
v -5.884349 -5.560401 5.884347
v -5.004229 -7.077048 5.004228
v -3.931796 -8.321729 3.931794
v -2.708269 -9.246610 2.708268
v -1.380663 -9.816148 1.380663
v -0.000000 -10.008458 0.000000
v -1.623488 9.816148 1.084780
v -3.184587 9.246610 2.127872
v -4.623302 8.321729 3.089190
v -5.884350 7.077048 3.931797
v -6.919263 5.560401 4.623302
v -7.688272 3.830071 5.137139
v -8.161827 1.952553 5.453556
v -8.321725 0.000000 5.560393
v -8.161827 -1.952553 5.453556
v -7.688272 -3.830071 5.137139
v -6.919263 -5.560401 4.623302
v -5.884350 -7.077048 3.931797
v -4.623302 -8.321729 3.089190
v -3.184587 -9.246610 2.127872
v -1.623488 -9.816148 1.084780
v -1.803923 9.816148 0.747209
v -3.538523 9.246610 1.465704
v -5.137138 8.321729 2.127871
v -6.538340 7.077048 2.708269
v -7.688272 5.560401 3.184585
v -8.542750 3.830071 3.538523
v -9.068936 1.952553 3.756474
v -9.246603 0.000000 3.830064
v -9.068936 -1.952553 3.756474
v -8.542750 -3.830071 3.538523
v -7.688272 -5.560401 3.184585
v -6.538340 -7.077048 2.708269
v -5.137138 -8.321729 2.127871
v -3.538523 -9.246610 1.465704
v -1.803923 -9.816148 0.747209
v -1.915034 9.816148 0.380924
v -3.756476 9.246610 0.747209
v -5.453557 8.321729 1.084778
v -6.941064 7.077048 1.380663
v -8.161825 5.560401 1.623487
v -9.068935 3.830071 1.803923
v -9.627531 1.952553 1.915032
v -9.816140 0.000000 1.952547
v -9.627531 -1.952553 1.915032
v -9.068935 -3.830071 1.803923
v -8.161825 -5.560401 1.623487
v -6.941064 -7.077048 1.380663
v -5.453557 -8.321729 1.084778
v -3.756476 -9.246610 0.747209
v -1.915034 -9.816148 0.380924
v -1.952552 9.816148 -0.000000
v -3.830070 9.246610 -0.000000
v -5.560397 8.321729 -0.000001
v -7.077047 7.077048 -0.000000
v -8.321725 5.560401 -0.000001
v -9.246607 3.830071 0.000000
v -9.816145 1.952553 -0.000003
v -10.008450 0.000000 -0.000004
v -9.816145 -1.952553 -0.000003
v -9.246607 -3.830071 0.000000
v -8.321725 -5.560401 -0.000001
v -7.077047 -7.077048 -0.000000
v -5.560397 -8.321729 -0.000001
v -3.830070 -9.246610 -0.000000
v -1.952552 -9.816148 -0.000000
v -1.915034 9.816148 -0.380924
v -3.756475 9.246610 -0.747210
v -5.453556 8.321729 -1.084781
v -6.941063 7.077048 -1.380664
v -8.161824 5.560401 -1.623489
v -9.068935 3.830071 -1.803923
v -9.627529 1.952553 -1.915037
v -9.816138 0.000000 -1.952556
v -9.627529 -1.952553 -1.915037
v -9.068935 -3.830071 -1.803923
v -8.161824 -5.560401 -1.623489
v -6.941063 -7.077048 -1.380664
v -5.453556 -8.321729 -1.084781
v -3.756475 -9.246610 -0.747210
v -1.915034 -9.816148 -0.380924
v -1.803923 9.816148 -0.747209
v -3.538523 9.246610 -1.465704
v -5.137136 8.321729 -2.127873
v -6.538339 7.077048 -2.708268
v -7.688270 5.560401 -3.184587
v -8.542750 3.830071 -3.538522
v -9.068933 1.952553 -3.756478
v -9.246599 0.000000 -3.830071
v -9.068933 -1.952553 -3.756478
v -8.542750 -3.830071 -3.538522
v -7.688270 -5.560401 -3.184587
v -6.538339 -7.077048 -2.708268
v -5.137136 -8.321729 -2.127873
v -3.538523 -9.246610 -1.465704
v -1.803923 -9.816148 -0.747209
v -1.623487 9.816148 -1.084780
v -3.184586 9.246610 -2.127873
v -4.623300 8.321729 -3.089192
v -5.884349 7.077048 -3.931796
v -6.919260 5.560401 -4.623303
v -7.688272 3.830071 -5.137139
v -8.161824 1.952553 -5.453559
v -8.321718 0.000000 -5.560400
v -8.161824 -1.952553 -5.453559
v -7.688272 -3.830071 -5.137139
v -6.919260 -5.560401 -4.623303
v -5.884349 -7.077048 -3.931796
v -4.623300 -8.321729 -3.089192
v -3.184586 -9.246610 -2.127873
v -1.623487 -9.816148 -1.084780
v -1.380663 9.816148 -1.380662
v -2.708268 9.246610 -2.708268
v -3.931793 8.321729 -3.931795
v -5.004228 7.077048 -5.004228
v -5.884346 5.560401 -5.884348
v -6.538338 3.830071 -6.538337
v -6.941060 1.952553 -6.941063
v -7.077038 0.000000 -7.077044
v -6.941060 -1.952553 -6.941063
v -6.538338 -3.830071 -6.538337
v -5.884346 -5.560401 -5.884348
v -5.004228 -7.077048 -5.004228
v -3.931793 -8.321729 -3.931795
v -2.708268 -9.246610 -2.708268
v -1.380663 -9.816148 -1.380662
v -1.084780 9.816148 -1.623487
v -2.127872 9.246610 -3.184586
v -3.089189 8.321729 -4.623301
v -3.931796 7.077048 -5.884349
v -4.623300 5.560401 -6.919261
v -5.137139 3.830071 -7.688271
v -5.453555 1.952553 -8.161825
v -5.560392 0.000000 -8.321722
v -5.453555 -1.952553 -8.161825
v -5.137139 -3.830071 -7.688271
v -4.623300 -5.560401 -6.919261
v -3.931796 -7.077048 -5.884349
v -3.089189 -8.321729 -4.623301
v -2.127872 -9.246610 -3.184586
v -1.084780 -9.816148 -1.623487
v -0.747209 9.816148 -1.803922
v -1.465704 9.246610 -3.538522
v -2.127870 8.321729 -5.137136
v -2.708268 7.077048 -6.538339
v -3.184584 5.560401 -7.688270
v -3.538523 3.830071 -8.542749
v -3.756473 1.952553 -9.068933
v -3.830063 0.000000 -9.246600
v -3.756473 -1.952553 -9.068933
v -3.538523 -3.830071 -8.542749
v -3.184584 -5.560401 -7.688270
v -2.708268 -7.077048 -6.538339
v -2.127870 -8.321729 -5.137136
v -1.465704 -9.246610 -3.538522
v -0.747209 -9.816148 -1.803922
v -0.380924 9.816148 -1.915033
v -0.747209 9.246610 -3.756475
v -1.084778 8.321729 -5.453554
v -1.380663 7.077048 -6.941063
v -1.623486 5.560401 -8.161823
v -1.803923 3.830071 -9.068933
v -1.915032 1.952553 -9.627528
v -1.952547 0.000000 -9.816137
v -1.915032 -1.952553 -9.627528
v -1.803923 -3.830071 -9.068933
v -1.623486 -5.560401 -8.161823
v -1.380663 -7.077048 -6.941063
v -1.084778 -8.321729 -5.453554
v -0.747209 -9.246610 -3.756475
v -0.380924 -9.816148 -1.915033
v -0.000000 9.816148 -1.952551
v 0.000000 9.246610 -3.830069
v 0.000000 7.077048 -7.077047
v 0.000000 3.830071 -9.246605
v 0.000000 -3.830071 -9.246605
v 0.000000 -7.077048 -7.077047
v 0.000002 -8.321729 -5.560394
v 0.000000 -9.246610 -3.830069
v -0.000000 -9.816148 -1.952551
vn -0.0464 -0.8810 0.4709
vn -0.0865 0.4696 0.8786
vn -0.0624 -0.7715 0.6332
vn -0.0759 0.6326 0.7708
vn -0.0759 -0.6326 0.7708
vn -0.0624 0.7715 0.6332
vn -0.0865 -0.4696 0.8786
vn -0.0464 0.8810 0.4709
vn -0.0938 -0.2890 0.9527
vn -0.0286 0.9565 0.2902
vn -0.0975 -0.0975 0.9904
vn -0.0097 -0.9951 0.0980
vn -0.0097 0.9951 0.0980
vn -0.0975 0.0975 0.9904
vn -0.0286 -0.9565 0.2902
vn -0.0938 0.2890 0.9527
vn -0.0846 -0.9565 0.2790
vn -0.2779 0.2890 0.9161
vn -0.1374 -0.8810 0.4528
vn -0.2563 0.4696 0.8448
vn -0.1847 -0.7715 0.6088
vn -0.2248 0.6326 0.7412
vn -0.2248 -0.6326 0.7412
vn -0.1847 0.7715 0.6088
vn -0.2563 -0.4696 0.8448
vn -0.1374 0.8810 0.4528
vn -0.2779 -0.2890 0.9161
vn -0.0846 0.9565 0.2790
vn -0.2889 -0.0976 0.9524
vn -0.0286 -0.9951 0.0942
vn -0.0286 0.9951 0.0942
vn -0.2889 0.0976 0.9524
vn -0.4162 -0.4696 0.7786
vn -0.2231 0.8810 0.4173
vn -0.4513 -0.2890 0.8443
vn -0.1374 0.9565 0.2571
vn -0.4691 -0.0975 0.8777
vn -0.0464 -0.9951 0.0869
vn -0.0464 0.9951 0.0869
vn -0.4691 0.0975 0.8777
vn -0.1374 -0.9565 0.2571
vn -0.4513 0.2890 0.8443
vn -0.2231 -0.8810 0.4173
vn -0.4162 0.4696 0.7786
vn -0.2999 -0.7715 0.5611
vn -0.3651 0.6326 0.6831
vn -0.3651 -0.6326 0.6831
vn -0.2999 0.7715 0.5611
vn -0.6073 0.2890 0.7400
vn -0.3002 -0.8810 0.3658
vn -0.5601 0.4696 0.6825
vn -0.4036 -0.7715 0.4918
vn -0.4913 0.6326 0.5987
vn -0.4913 -0.6326 0.5987
vn -0.4036 0.7715 0.4918
vn -0.5601 -0.4696 0.6825
vn -0.3002 0.8810 0.3658
vn -0.6073 -0.2890 0.7400
vn -0.1850 0.9565 0.2254
vn -0.6314 -0.0975 0.7693
vn -0.0625 -0.9951 0.0761
vn -0.0625 0.9951 0.0761
vn -0.6314 0.0975 0.7693
vn -0.1850 -0.9565 0.2254
vn -0.3658 0.8810 0.3002
vn -0.7400 -0.2890 0.6073
vn -0.2254 0.9565 0.1850
vn -0.7693 -0.0975 0.6314
vn -0.0761 -0.9951 0.0625
vn -0.0761 0.9951 0.0625
vn -0.7693 0.0975 0.6314
vn -0.2254 -0.9565 0.1850
vn -0.7400 0.2890 0.6073
vn -0.3658 -0.8810 0.3002
vn -0.6825 0.4696 0.5601
vn -0.4918 -0.7715 0.4036
vn -0.5987 0.6326 0.4913
vn -0.5987 -0.6326 0.4913
vn -0.4918 0.7715 0.4036
vn -0.6825 -0.4696 0.5601
vn -0.4173 -0.8810 0.2231
vn -0.7786 0.4696 0.4162
vn -0.5611 -0.7715 0.2999
vn -0.6831 0.6326 0.3651
vn -0.6831 -0.6326 0.3651
vn -0.5611 0.7715 0.2999
vn -0.7786 -0.4696 0.4162
vn -0.4173 0.8810 0.2231
vn -0.8443 -0.2890 0.4513
vn -0.2571 0.9565 0.1374
vn -0.8777 -0.0975 0.4691
vn -0.0869 -0.9951 0.0464
vn -0.0869 0.9951 0.0464
vn -0.8777 0.0975 0.4691
vn -0.2571 -0.9565 0.1374
vn -0.8443 0.2890 0.4513
vn -0.9161 -0.2890 0.2779
vn -0.2790 0.9565 0.0846
vn -0.9524 -0.0975 0.2889
vn -0.0942 -0.9951 0.0286
vn -0.0942 0.9951 0.0286
vn -0.9524 0.0975 0.2889
vn -0.2790 -0.9565 0.0846
vn -0.9161 0.2890 0.2779
vn -0.4528 -0.8810 0.1374
vn -0.8448 0.4696 0.2563
vn -0.6088 -0.7715 0.1847
vn -0.7412 0.6326 0.2248
vn -0.7412 -0.6326 0.2248
vn -0.6088 0.7715 0.1847
vn -0.8448 -0.4696 0.2563
vn -0.4528 0.8810 0.1374
vn -0.8786 0.4696 0.0865
vn -0.6332 -0.7715 0.0624
vn -0.7708 0.6326 0.0759
vn -0.7708 -0.6326 0.0759
vn -0.6332 0.7715 0.0624
vn -0.8786 -0.4696 0.0865
vn -0.4709 0.8810 0.0464
vn -0.9527 -0.2890 0.0938
vn -0.2902 0.9565 0.0286
vn -0.9904 -0.0975 0.0975
vn -0.0980 -0.9951 0.0097
vn -0.0980 0.9951 0.0097
vn -0.9904 0.0975 0.0975
vn -0.2902 -0.9565 0.0286
vn -0.9527 0.2890 0.0938
vn -0.4709 -0.8810 0.0464
vn -0.2902 0.9565 -0.0286
vn -0.9904 -0.0975 -0.0975
vn -0.0980 -0.9951 -0.0097
vn -0.0980 0.9951 -0.0097
vn -0.9904 0.0975 -0.0975
vn -0.2902 -0.9565 -0.0286
vn -0.9527 0.2890 -0.0938
vn -0.4709 -0.8810 -0.0464
vn -0.8786 0.4696 -0.0865
vn -0.6332 -0.7715 -0.0624
vn -0.7708 0.6326 -0.0759
vn -0.7708 -0.6326 -0.0759
vn -0.6332 0.7715 -0.0624
vn -0.8786 -0.4696 -0.0865
vn -0.4709 0.8810 -0.0464
vn -0.9527 -0.2890 -0.0938
vn -0.7412 0.6326 -0.2248
vn -0.7412 -0.6326 -0.2248
vn -0.6088 0.7715 -0.1847
vn -0.8448 -0.4696 -0.2563
vn -0.4528 0.8810 -0.1374
vn -0.9161 -0.2890 -0.2779
vn -0.2790 0.9565 -0.0846
vn -0.9524 -0.0975 -0.2889
vn -0.0942 -0.9951 -0.0286
vn -0.0942 0.9951 -0.0286
vn -0.9524 0.0975 -0.2889
vn -0.2790 -0.9565 -0.0846
vn -0.9161 0.2890 -0.2779
vn -0.4528 -0.8810 -0.1374
vn -0.8448 0.4696 -0.2563
vn -0.6088 -0.7715 -0.1847
vn -0.0869 -0.9951 -0.0464
vn -0.0869 0.9951 -0.0464
vn -0.8777 0.0975 -0.4691
vn -0.2571 -0.9565 -0.1374
vn -0.8443 0.2890 -0.4513
vn -0.4173 -0.8810 -0.2230
vn -0.7786 0.4696 -0.4162
vn -0.5611 -0.7715 -0.2999
vn -0.6831 0.6326 -0.3651
vn -0.6831 -0.6326 -0.3651
vn -0.5611 0.7715 -0.2999
vn -0.7786 -0.4696 -0.4162
vn -0.4173 0.8810 -0.2230
vn -0.8443 -0.2890 -0.4513
vn -0.2571 0.9565 -0.1374
vn -0.8777 -0.0975 -0.4691
vn -0.5987 -0.6326 -0.4913
vn -0.4918 0.7715 -0.4036
vn -0.6825 -0.4696 -0.5601
vn -0.3658 0.8810 -0.3002
vn -0.7400 -0.2890 -0.6073
vn -0.2254 0.9565 -0.1850
vn -0.7693 -0.0975 -0.6314
vn -0.0761 -0.9951 -0.0625
vn -0.0761 0.9951 -0.0625
vn -0.7693 0.0975 -0.6314
vn -0.2254 -0.9565 -0.1850
vn -0.7400 0.2890 -0.6073
vn -0.3658 -0.8810 -0.3002
vn -0.6825 0.4696 -0.5601
vn -0.4918 -0.7715 -0.4036
vn -0.5987 0.6326 -0.4913
vn -0.6314 0.0975 -0.7693
vn -0.1850 -0.9565 -0.2254
vn -0.6073 0.2890 -0.7400
vn -0.3002 -0.8810 -0.3658
vn -0.5601 0.4696 -0.6825
vn -0.4036 -0.7715 -0.4918
vn -0.4913 0.6326 -0.5987
vn -0.4913 -0.6326 -0.5987
vn -0.4036 0.7715 -0.4918
vn -0.5601 -0.4696 -0.6825
vn -0.3002 0.8810 -0.3658
vn -0.6073 -0.2890 -0.7400
vn -0.1850 0.9565 -0.2254
vn -0.6314 -0.0975 -0.7693
vn -0.0625 -0.9951 -0.0761
vn -0.0625 0.9951 -0.0761
vn -0.2999 0.7715 -0.5611
vn -0.4162 -0.4696 -0.7786
vn -0.2231 0.8810 -0.4173
vn -0.4513 -0.2890 -0.8443
vn -0.1374 0.9565 -0.2571
vn -0.4691 -0.0975 -0.8777
vn -0.0464 -0.9951 -0.0869
vn -0.0464 0.9951 -0.0869
vn -0.4691 0.0975 -0.8777
vn -0.1374 -0.9565 -0.2571
vn -0.4513 0.2890 -0.8443
vn -0.2231 -0.8810 -0.4173
vn -0.4162 0.4696 -0.7786
vn -0.2999 -0.7715 -0.5611
vn -0.3651 0.6326 -0.6831
vn -0.3651 -0.6326 -0.6831
vn -0.0846 -0.9565 -0.2790
vn -0.2779 0.2890 -0.9161
vn -0.1374 -0.8810 -0.4528
vn -0.2563 0.4696 -0.8448
vn -0.1847 -0.7715 -0.6088
vn -0.2248 0.6326 -0.7412
vn -0.2248 -0.6326 -0.7412
vn -0.1847 0.7715 -0.6088
vn -0.2563 -0.4696 -0.8448
vn -0.1374 0.8810 -0.4528
vn -0.2779 -0.2890 -0.9161
vn -0.0846 0.9565 -0.2790
vn -0.2889 -0.0975 -0.9524
vn -0.0286 -0.9951 -0.0942
vn -0.0286 0.9951 -0.0942
vn -0.2889 0.0975 -0.9524
vn -0.0865 -0.4696 -0.8786
vn -0.0464 0.8810 -0.4709
vn -0.0938 -0.2890 -0.9527
vn -0.0286 0.9565 -0.2902
vn -0.0975 -0.0975 -0.9904
vn -0.0097 -0.9951 -0.0980
vn -0.0097 0.9951 -0.0980
vn -0.0975 0.0975 -0.9904
vn -0.0286 -0.9565 -0.2902
vn -0.0938 0.2890 -0.9527
vn -0.0464 -0.8810 -0.4709
vn -0.0865 0.4696 -0.8786
vn -0.0624 -0.7715 -0.6332
vn -0.0759 0.6326 -0.7708
vn -0.0759 -0.6326 -0.7708
vn -0.0624 0.7715 -0.6332
vn 0.0938 0.2890 -0.9527
vn 0.0464 -0.8810 -0.4709
vn 0.0865 0.4696 -0.8786
vn 0.0624 -0.7715 -0.6332
vn 0.0759 0.6326 -0.7708
vn 0.0759 -0.6326 -0.7708
vn 0.0624 0.7715 -0.6332
vn 0.0865 -0.4696 -0.8786
vn 0.0464 0.8810 -0.4709
vn 0.0938 -0.2890 -0.9527
vn 0.0286 0.9565 -0.2902
vn 0.0975 -0.0975 -0.9904
vn 0.0097 -0.9951 -0.0980
vn 0.0097 0.9951 -0.0980
vn 0.0975 0.0975 -0.9904
vn 0.0286 -0.9565 -0.2902
vn 0.1374 0.8810 -0.4528
vn 0.2779 -0.2890 -0.9161
vn 0.0846 0.9565 -0.2790
vn 0.2889 -0.0975 -0.9524
vn 0.0286 -0.9951 -0.0942
vn 0.0286 0.9951 -0.0942
vn 0.2889 0.0975 -0.9524
vn 0.0846 -0.9565 -0.2790
vn 0.2779 0.2890 -0.9161
vn 0.1374 -0.8810 -0.4528
vn 0.2563 0.4696 -0.8448
vn 0.1847 -0.7715 -0.6088
vn 0.2248 0.6326 -0.7412
vn 0.2248 -0.6326 -0.7412
vn 0.1847 0.7715 -0.6088
vn 0.2563 -0.4696 -0.8448
vn 0.4162 0.4696 -0.7786
vn 0.2999 -0.7715 -0.5611
vn 0.3651 0.6326 -0.6831
vn 0.3651 -0.6326 -0.6831
vn 0.2999 0.7715 -0.5611
vn 0.4162 -0.4696 -0.7786
vn 0.2231 0.8810 -0.4173
vn 0.4513 -0.2890 -0.8443
vn 0.1374 0.9565 -0.2571
vn 0.4691 -0.0975 -0.8777
vn 0.0464 -0.9951 -0.0869
vn 0.0464 0.9951 -0.0869
vn 0.4691 0.0975 -0.8777
vn 0.1374 -0.9565 -0.2571
vn 0.4513 0.2890 -0.8443
vn 0.2231 -0.8810 -0.4173
vn 0.1850 0.9565 -0.2254
vn 0.6314 -0.0975 -0.7693
vn 0.0625 -0.9951 -0.0761
vn 0.0625 0.9951 -0.0761
vn 0.6314 0.0975 -0.7693
vn 0.1850 -0.9565 -0.2254
vn 0.6073 0.2890 -0.7400
vn 0.3002 -0.8810 -0.3658
vn 0.5601 0.4696 -0.6825
vn 0.4036 -0.7715 -0.4918
vn 0.4913 0.6326 -0.5987
vn 0.4913 -0.6326 -0.5987
vn 0.4036 0.7715 -0.4918
vn 0.5601 -0.4696 -0.6825
vn 0.3002 0.8810 -0.3658
vn 0.6073 -0.2890 -0.7400
vn 0.4918 -0.7715 -0.4036
vn 0.5987 0.6326 -0.4913
vn 0.5987 -0.6326 -0.4913
vn 0.4918 0.7715 -0.4036
vn 0.6825 -0.4696 -0.5601
vn 0.3658 0.8810 -0.3002
vn 0.7400 -0.2890 -0.6073
vn 0.2254 0.9565 -0.1850
vn 0.7693 -0.0975 -0.6314
vn 0.0761 -0.9951 -0.0625
vn 0.0761 0.9951 -0.0625
vn 0.7693 0.0975 -0.6314
vn 0.2254 -0.9565 -0.1850
vn 0.7400 0.2890 -0.6073
vn 0.3658 -0.8810 -0.3002
vn 0.6825 0.4696 -0.5601
vn 0.8777 -0.0975 -0.4691
vn 0.0869 -0.9951 -0.0464
vn 0.0869 0.9951 -0.0464
vn 0.8777 0.0975 -0.4691
vn 0.2571 -0.9565 -0.1374
vn 0.8443 0.2890 -0.4513
vn 0.4173 -0.8810 -0.2231
vn 0.7786 0.4696 -0.4162
vn 0.5611 -0.7715 -0.2999
vn 0.6831 0.6326 -0.3651
vn 0.6831 -0.6326 -0.3651
vn 0.5611 0.7715 -0.2999
vn 0.7786 -0.4696 -0.4162
vn 0.4173 0.8810 -0.2231
vn 0.8443 -0.2890 -0.4513
vn 0.2571 0.9565 -0.1374
vn 0.7412 0.6326 -0.2248
vn 0.7412 -0.6326 -0.2248
vn 0.6088 0.7715 -0.1847
vn 0.8448 -0.4696 -0.2563
vn 0.4528 0.8810 -0.1374
vn 0.9161 -0.2890 -0.2779
vn 0.2790 0.9565 -0.0846
vn 0.9524 -0.0975 -0.2889
vn 0.0942 -0.9951 -0.0286
vn 0.0942 0.9951 -0.0286
vn 0.9524 0.0975 -0.2889
vn 0.2790 -0.9565 -0.0846
vn 0.9161 0.2890 -0.2779
vn 0.4528 -0.8810 -0.1374
vn 0.8448 0.4696 -0.2563
vn 0.6088 -0.7715 -0.1847
vn 0.0980 -0.9951 -0.0097
vn 0.0980 0.9951 -0.0097
vn 0.9904 0.0975 -0.0975
vn 0.2902 -0.9565 -0.0286
vn 0.9527 0.2890 -0.0938
vn 0.4709 -0.8810 -0.0464
vn 0.8786 0.4696 -0.0865
vn 0.6332 -0.7715 -0.0624
vn 0.7708 0.6326 -0.0759
vn 0.7708 -0.6326 -0.0759
vn 0.6332 0.7715 -0.0624
vn 0.8786 -0.4696 -0.0865
vn 0.4709 0.8810 -0.0464
vn 0.9527 -0.2890 -0.0938
vn 0.2902 0.9565 -0.0286
vn 0.9904 -0.0975 -0.0975
vn 0.7708 -0.6326 0.0759
vn 0.6332 0.7715 0.0624
vn 0.8786 -0.4696 0.0865
vn 0.4709 0.8810 0.0464
vn 0.9527 -0.2890 0.0938
vn 0.2902 0.9565 0.0286
vn 0.9904 -0.0975 0.0976
vn 0.0980 -0.9951 0.0097
vn 0.0980 0.9951 0.0097
vn 0.9904 0.0975 0.0976
vn 0.2902 -0.9565 0.0286
vn 0.9527 0.2890 0.0938
vn 0.4709 -0.8810 0.0464
vn 0.8786 0.4696 0.0865
vn 0.6332 -0.7715 0.0624
vn 0.7708 0.6326 0.0759
vn 0.9524 0.0975 0.2889
vn 0.2790 -0.9565 0.0846
vn 0.9161 0.2890 0.2779
vn 0.4528 -0.8810 0.1374
vn 0.8448 0.4696 0.2563
vn 0.6088 -0.7715 0.1847
vn 0.7412 0.6326 0.2248
vn 0.7412 -0.6326 0.2248
vn 0.6088 0.7715 0.1847
vn 0.8448 -0.4696 0.2563
vn 0.4528 0.8810 0.1374
vn 0.9161 -0.2890 0.2779
vn 0.2790 0.9565 0.0846
vn 0.9524 -0.0975 0.2889
vn 0.0942 -0.9951 0.0286
vn 0.0942 0.9951 0.0286
vn 0.5611 0.7715 0.2999
vn 0.7786 -0.4696 0.4162
vn 0.4173 0.8810 0.2231
vn 0.8443 -0.2890 0.4513
vn 0.2571 0.9565 0.1374
vn 0.8777 -0.0975 0.4691
vn 0.0869 -0.9951 0.0464
vn 0.0869 0.9951 0.0464
vn 0.8777 0.0975 0.4691
vn 0.2571 -0.9565 0.1374
vn 0.8443 0.2890 0.4513
vn 0.4173 -0.8810 0.2231
vn 0.7786 0.4696 0.4162
vn 0.5611 -0.7715 0.2999
vn 0.6831 0.6326 0.3651
vn 0.6831 -0.6326 0.3651
vn 0.7400 0.2890 0.6073
vn 0.3658 -0.8810 0.3002
vn 0.6825 0.4696 0.5601
vn 0.4918 -0.7715 0.4036
vn 0.5987 0.6326 0.4913
vn 0.5987 -0.6326 0.4913
vn 0.4918 0.7715 0.4036
vn 0.6825 -0.4696 0.5601
vn 0.3658 0.8810 0.3002
vn 0.7400 -0.2890 0.6073
vn 0.2254 0.9565 0.1850
vn 0.7693 -0.0975 0.6314
vn 0.0761 -0.9951 0.0625
vn 0.0761 0.9951 0.0625
vn 0.7693 0.0975 0.6314
vn 0.2254 -0.9565 0.1850
vn 0.3002 0.8810 0.3658
vn 0.6073 -0.2890 0.7400
vn 0.1850 0.9565 0.2254
vn 0.6314 -0.0975 0.7693
vn 0.0625 -0.9951 0.0761
vn 0.0625 0.9951 0.0761
vn 0.6314 0.0975 0.7693
vn 0.1850 -0.9565 0.2254
vn 0.6073 0.2890 0.7400
vn 0.3002 -0.8810 0.3658
vn 0.5601 0.4696 0.6825
vn 0.4036 -0.7715 0.4918
vn 0.4913 0.6326 0.5987
vn 0.4913 -0.6326 0.5987
vn 0.4036 0.7715 0.4918
vn 0.5601 -0.4696 0.6825
vn 0.2231 -0.8810 0.4173
vn 0.4162 0.4696 0.7786
vn 0.2999 -0.7715 0.5611
vn 0.3651 0.6326 0.6831
vn 0.3651 -0.6326 0.6831
vn 0.2999 0.7715 0.5611
vn 0.4162 -0.4696 0.7786
vn 0.2231 0.8810 0.4173
vn 0.4513 -0.2890 0.8443
vn 0.1374 0.9565 0.2571
vn 0.4691 -0.0975 0.8777
vn 0.0464 -0.9951 0.0869
vn 0.0464 0.9951 0.0869
vn 0.4691 0.0975 0.8777
vn 0.1374 -0.9565 0.2571
vn 0.4513 0.2890 0.8443
vn 0.2779 -0.2890 0.9161
vn 0.0846 0.9565 0.2790
vn 0.2889 -0.0975 0.9524
vn 0.0286 -0.9951 0.0942
vn 0.0286 0.9951 0.0942
vn 0.2889 0.0975 0.9524
vn 0.0846 -0.9565 0.2790
vn 0.2779 0.2890 0.9161
vn 0.1374 -0.8810 0.4528
vn 0.2563 0.4696 0.8448
vn 0.1847 -0.7715 0.6088
vn 0.2248 0.6326 0.7412
vn 0.2248 -0.6326 0.7412
vn 0.1847 0.7715 0.6088
vn 0.2563 -0.4696 0.8448
vn 0.1374 0.8810 0.4528
vn 0.0865 0.4696 0.8786
vn 0.0624 -0.7715 0.6332
vn 0.0759 0.6326 0.7708
vn 0.0759 -0.6326 0.7708
vn 0.0624 0.7715 0.6332
vn 0.0865 -0.4696 0.8786
vn 0.0464 0.8810 0.4709
vn 0.0938 -0.2890 0.9527
vn 0.0286 0.9565 0.2902
vn 0.0976 -0.0975 0.9904
vn 0.0097 -0.9951 0.0980
vn 0.0097 0.9951 0.0980
vn 0.0976 0.0975 0.9904
vn 0.0286 -0.9565 0.2902
vn 0.0938 0.2890 0.9527
vn 0.0464 -0.8810 0.4709
vn -0.0975 -0.0976 0.9904
vn -0.0975 0.0976 0.9904
vn -0.2889 -0.0975 0.9524
vn -0.2889 0.0975 0.9524
vn -0.4173 -0.8810 0.2230
vn -0.4173 0.8810 0.2230
vn -0.8777 0.0975 -0.4692
vn -0.4173 -0.8810 -0.2231
vn -0.4173 0.8810 -0.2231
vn -0.8777 -0.0975 -0.4692
vn -0.2230 0.8810 -0.4173
vn -0.2230 -0.8810 -0.4173
vn 0.0976 -0.0975 -0.9904
vn 0.0976 0.0975 -0.9904
vn 0.4173 -0.8810 -0.2230
vn 0.4173 0.8810 -0.2230
vn 0.0976 -0.0976 0.9904
vn 0.0976 0.0976 0.9904
vt 0.750000 0.812500
vt 0.718750 0.875000
vt 0.750000 0.875000
vt 0.718750 0.312500
vt 0.750000 0.375000
vt 0.750000 0.312500
vt 0.750000 0.750000
vt 0.718750 0.812500
vt 0.718750 0.250000
vt 0.750000 0.250000
vt 0.718750 0.687500
vt 0.750000 0.687500
vt 0.718750 0.187500
vt 0.750000 0.187500
vt 0.750000 0.625000
vt 0.718750 0.125000
vt 0.750000 0.125000
vt 0.750000 0.562500
vt 0.718750 0.625000
vt 0.718750 0.062500
vt 0.750000 0.062500
vt 0.718750 0.500000
vt 0.750000 0.500000
vt 0.750000 0.937500
vt 0.718750 0.937500
vt 0.734375 1.000000
vt 0.734375 0.000000
vt 0.750000 0.437500
vt 0.718750 0.375000
vt 0.687500 0.875000
vt 0.687500 0.375000
vt 0.718750 0.437500
vt 0.687500 0.812500
vt 0.687500 0.750000
vt 0.718750 0.750000
vt 0.687500 0.312500
vt 0.687500 0.687500
vt 0.687500 0.250000
vt 0.687500 0.625000
vt 0.687500 0.187500
vt 0.718750 0.562500
vt 0.687500 0.125000
vt 0.687500 0.562500
vt 0.687500 0.937500
vt 0.703125 1.000000
vt 0.703125 0.000000
vt 0.687500 0.062500
vt 0.687500 0.437500
vt 0.656250 0.625000
vt 0.656250 0.187500
vt 0.656250 0.125000
vt 0.687500 0.500000
vt 0.656250 0.562500
vt 0.656250 0.937500
vt 0.671875 1.000000
vt 0.671875 0.000000
vt 0.656250 0.062500
vt 0.656250 0.437500
vt 0.656250 0.875000
vt 0.656250 0.375000
vt 0.656250 0.812500
vt 0.656250 0.750000
vt 0.656250 0.250000
vt 0.625000 0.375000
vt 0.625000 0.812500
vt 0.656250 0.312500
vt 0.625000 0.750000
vt 0.625000 0.312500
vt 0.625000 0.687500
vt 0.656250 0.687500
vt 0.625000 0.250000
vt 0.625000 0.625000
vt 0.625000 0.187500
vt 0.625000 0.125000
vt 0.656250 0.500000
vt 0.625000 0.562500
vt 0.625000 0.937500
vt 0.640625 1.000000
vt 0.640625 0.000000
vt 0.625000 0.062500
vt 0.625000 0.437500
vt 0.625000 0.875000
vt 0.593750 0.125000
vt 0.593750 0.625000
vt 0.593750 0.062500
vt 0.625000 0.500000
vt 0.593750 0.562500
vt 0.593750 0.937500
vt 0.609375 1.000000
vt 0.609375 0.000000
vt 0.593750 0.437500
vt 0.593750 0.375000
vt 0.593750 0.875000
vt 0.593750 0.750000
vt 0.593750 0.250000
vt 0.593750 0.687500
vt 0.562500 0.812500
vt 0.593750 0.812500
vt 0.593750 0.312500
vt 0.562500 0.375000
vt 0.562500 0.750000
vt 0.562500 0.250000
vt 0.593750 0.187500
vt 0.562500 0.625000
vt 0.562500 0.187500
vt 0.562500 0.125000
vt 0.593750 0.500000
vt 0.562500 0.562500
vt 0.562500 0.937500
vt 0.578125 1.000000
vt 0.578125 0.000000
vt 0.562500 0.062500
vt 0.562500 0.437500
vt 0.562500 0.875000
vt 0.531250 0.625000
vt 0.531250 0.125000
vt 0.562500 0.500000
vt 0.531250 0.562500
vt 0.531250 0.937500
vt 0.546875 1.000000
vt 0.546875 0.000000
vt 0.531250 0.062500
vt 0.531250 0.437500
vt 0.531250 0.875000
vt 0.531250 0.375000
vt 0.562500 0.312500
vt 0.531250 0.750000
vt 0.531250 0.250000
vt 0.562500 0.687500
vt 0.531250 0.312500
vt 0.500000 0.375000
vt 0.500000 0.750000
vt 0.531250 0.812500
vt 0.500000 0.250000
vt 0.531250 0.687500
vt 0.531250 0.187500
vt 0.500000 0.625000
vt 0.500000 0.187500
vt 0.500000 0.062500
vt 0.531250 0.500000
vt 0.500000 0.562500
vt 0.500000 0.937500
vt 0.515625 1.000000
vt 0.515625 0.000000
vt 0.500000 0.437500
vt 0.500000 0.875000
vt 0.500000 0.812500
vt 0.468750 0.062500
vt 0.500000 0.125000
vt 0.500000 0.500000
vt 0.468750 0.562500
vt 0.468750 0.937500
vt 0.484375 1.000000
vt 0.484375 0.000000
vt 0.468750 0.437500
vt 0.468750 0.875000
vt 0.468750 0.375000
vt 0.500000 0.312500
vt 0.468750 0.750000
vt 0.468750 0.250000
vt 0.500000 0.687500
vt 0.468750 0.625000
vt 0.468750 0.125000
vt 0.437500 0.250000
vt 0.468750 0.312500
vt 0.468750 0.687500
vt 0.437500 0.750000
vt 0.468750 0.187500
vt 0.437500 0.625000
vt 0.437500 0.125000
vt 0.468750 0.500000
vt 0.437500 0.562500
vt 0.437500 0.937500
vt 0.453125 1.000000
vt 0.453125 0.000000
vt 0.437500 0.062500
vt 0.437500 0.437500
vt 0.437500 0.875000
vt 0.437500 0.375000
vt 0.468750 0.812500
vt 0.406250 0.937500
vt 0.421875 1.000000
vt 0.421875 0.000000
vt 0.406250 0.062500
vt 0.406250 0.437500
vt 0.437500 0.500000
vt 0.406250 0.875000
vt 0.406250 0.375000
vt 0.437500 0.812500
vt 0.437500 0.312500
vt 0.406250 0.750000
vt 0.406250 0.250000
vt 0.437500 0.687500
vt 0.437500 0.187500
vt 0.406250 0.625000
vt 0.406250 0.125000
vt 0.406250 0.562500
vt 0.406250 0.687500
vt 0.375000 0.750000
vt 0.406250 0.187500
vt 0.375000 0.250000
vt 0.375000 0.625000
vt 0.375000 0.125000
vt 0.406250 0.500000
vt 0.375000 0.562500
vt 0.375000 0.937500
vt 0.390625 1.000000
vt 0.390625 0.000000
vt 0.375000 0.062500
vt 0.375000 0.437500
vt 0.375000 0.875000
vt 0.375000 0.375000
vt 0.406250 0.812500
vt 0.406250 0.312500
vt 0.343750 0.437500
vt 0.375000 0.500000
vt 0.343750 0.875000
vt 0.343750 0.375000
vt 0.343750 0.812500
vt 0.375000 0.812500
vt 0.375000 0.312500
vt 0.343750 0.750000
vt 0.343750 0.250000
vt 0.375000 0.687500
vt 0.375000 0.187500
vt 0.343750 0.625000
vt 0.343750 0.187500
vt 0.343750 0.062500
vt 0.343750 0.562500
vt 0.343750 0.937500
vt 0.359375 1.000000
vt 0.359375 0.000000
vt 0.312500 0.250000
vt 0.312500 0.625000
vt 0.343750 0.687500
vt 0.343750 0.125000
vt 0.312500 0.187500
vt 0.312500 0.125000
vt 0.343750 0.500000
vt 0.312500 0.562500
vt 0.312500 0.937500
vt 0.328125 1.000000
vt 0.328125 0.000000
vt 0.312500 0.062500
vt 0.312500 0.437500
vt 0.312500 0.875000
vt 0.312500 0.375000
vt 0.312500 0.812500
vt 0.343750 0.312500
vt 0.312500 0.750000
vt 0.281250 0.875000
vt 0.281250 0.375000
vt 0.281250 0.812500
vt 0.312500 0.312500
vt 0.281250 0.750000
vt 0.281250 0.250000
vt 0.312500 0.687500
vt 0.281250 0.625000
vt 0.281250 0.187500
vt 0.281250 0.125000
vt 0.312500 0.500000
vt 0.281250 0.562500
vt 0.281250 0.937500
vt 0.296875 1.000000
vt 0.296875 0.000000
vt 0.281250 0.062500
vt 0.281250 0.437500
vt 0.250000 0.625000
vt 0.281250 0.687500
vt 0.250000 0.125000
vt 0.250000 0.062500
vt 0.281250 0.500000
vt 0.250000 0.562500
vt 0.250000 0.937500
vt 0.265625 1.000000
vt 0.265625 0.000000
vt 0.250000 0.437500
vt 0.250000 0.375000
vt 0.250000 0.812500
vt 0.281250 0.312500
vt 0.250000 0.750000
vt 0.250000 0.250000
vt 0.218750 0.375000
vt 0.218750 0.875000
vt 0.250000 0.875000
vt 0.250000 0.312500
vt 0.218750 0.750000
vt 0.218750 0.250000
vt 0.250000 0.687500
vt 0.250000 0.187500
vt 0.218750 0.625000
vt 0.218750 0.125000
vt 0.218750 0.062500
vt 0.250000 0.500000
vt 0.218750 0.562500
vt 0.218750 0.937500
vt 0.234375 1.000000
vt 0.234375 0.000000
vt 0.218750 0.437500
vt 0.187500 0.187500
vt 0.218750 0.187500
vt 0.187500 0.625000
vt 0.187500 0.062500
vt 0.218750 0.500000
vt 0.187500 0.562500
vt 0.187500 0.937500
vt 0.203125 1.000000
vt 0.203125 0.000000
vt 0.187500 0.437500
vt 0.187500 0.375000
vt 0.187500 0.812500
vt 0.218750 0.812500
vt 0.218750 0.312500
vt 0.187500 0.750000
vt 0.187500 0.250000
vt 0.218750 0.687500
vt 0.187500 0.312500
vt 0.156250 0.375000
vt 0.156250 0.750000
vt 0.156250 0.250000
vt 0.187500 0.687500
vt 0.156250 0.625000
vt 0.156250 0.125000
vt 0.187500 0.125000
vt 0.156250 0.062500
vt 0.187500 0.500000
vt 0.156250 0.562500
vt 0.156250 0.937500
vt 0.171875 1.000000
vt 0.171875 0.000000
vt 0.156250 0.437500
vt 0.156250 0.875000
vt 0.187500 0.875000
vt 0.125000 0.125000
vt 0.156250 0.500000
vt 0.125000 0.562500
vt 0.125000 0.937500
vt 0.140625 1.000000
vt 0.140625 0.000000
vt 0.125000 0.062500
vt 0.125000 0.437500
vt 0.125000 0.875000
vt 0.125000 0.375000
vt 0.125000 0.812500
vt 0.156250 0.812500
vt 0.156250 0.312500
vt 0.125000 0.750000
vt 0.125000 0.250000
vt 0.156250 0.687500
vt 0.156250 0.187500
vt 0.125000 0.625000
vt 0.093750 0.750000
vt 0.093750 0.250000
vt 0.125000 0.312500
vt 0.125000 0.687500
vt 0.125000 0.187500
vt 0.093750 0.625000
vt 0.093750 0.125000
vt 0.125000 0.500000
vt 0.093750 0.562500
vt 0.093750 0.937500
vt 0.109375 1.000000
vt 0.109375 0.000000
vt 0.093750 0.062500
vt 0.093750 0.437500
vt 0.093750 0.875000
vt 0.093750 0.375000
vt 0.093750 0.500000
vt 0.062500 0.562500
vt 0.062500 0.937500
vt 0.078125 1.000000
vt 0.078125 0.000000
vt 0.062500 0.062500
vt 0.062500 0.437500
vt 0.062500 0.875000
vt 0.062500 0.375000
vt 0.093750 0.812500
vt 0.093750 0.312500
vt 0.062500 0.750000
vt 0.062500 0.250000
vt 0.093750 0.687500
vt 0.093750 0.187500
vt 0.062500 0.625000
vt 0.062500 0.125000
vt 0.031250 0.250000
vt 0.062500 0.312500
vt 0.062500 0.687500
vt 0.031250 0.750000
vt 0.062500 0.187500
vt 0.031250 0.625000
vt 0.031250 0.125000
vt 0.062500 0.500000
vt 0.031250 0.562500
vt 0.031250 0.937500
vt 0.046875 1.000000
vt 0.046875 0.000000
vt 0.031250 0.062500
vt 0.031250 0.437500
vt 0.031250 0.875000
vt 0.031250 0.375000
vt 0.062500 0.812500
vt 0.000000 0.937500
vt 0.015625 1.000000
vt 0.015625 0.000000
vt 0.000000 0.062500
vt 0.000000 0.437500
vt 0.031250 0.500000
vt 0.000000 0.875000
vt 0.000000 0.375000
vt 0.000000 0.812500
vt 0.031250 0.812500
vt 0.031250 0.312500
vt 0.000000 0.750000
vt 0.000000 0.250000
vt 0.031250 0.687500
vt 0.031250 0.187500
vt 0.000000 0.625000
vt 0.000000 0.187500
vt 0.000000 0.125000
vt 0.000000 0.562500
vt 1.000000 0.687500
vt 0.968750 0.750000
vt 1.000000 0.750000
vt 1.000000 0.187500
vt 0.968750 0.250000
vt 1.000000 0.250000
vt 0.968750 0.625000
vt 1.000000 0.625000
vt 0.968750 0.125000
vt 1.000000 0.125000
vt 1.000000 0.562500
vt 1.000000 0.062500
vt 1.000000 0.500000
vt 0.968750 0.562500
vt 1.000000 0.937500
vt 0.968750 0.937500
vt 0.984375 1.000000
vt 0.984375 0.000000
vt 0.968750 0.062500
vt 0.968750 0.437500
vt 1.000000 0.437500
vt 0.968750 0.875000
vt 1.000000 0.875000
vt 0.968750 0.375000
vt 1.000000 0.375000
vt 1.000000 0.812500
vt 1.000000 0.312500
vt 0.937500 0.437500
vt 0.968750 0.500000
vt 0.937500 0.937500
vt 0.937500 0.375000
vt 0.968750 0.812500
vt 0.937500 0.875000
vt 0.968750 0.312500
vt 0.937500 0.750000
vt 0.937500 0.250000
vt 0.968750 0.687500
vt 0.968750 0.187500
vt 0.937500 0.625000
vt 0.937500 0.125000
vt 0.937500 0.062500
vt 0.937500 0.562500
vt 0.953125 1.000000
vt 0.953125 0.000000
vt 0.937500 0.187500
vt 0.906250 0.250000
vt 0.906250 0.625000
vt 0.937500 0.687500
vt 0.906250 0.187500
vt 0.906250 0.125000
vt 0.937500 0.500000
vt 0.906250 0.562500
vt 0.906250 0.937500
vt 0.921875 1.000000
vt 0.921875 0.000000
vt 0.906250 0.062500
vt 0.906250 0.437500
vt 0.906250 0.875000
vt 0.906250 0.375000
vt 0.906250 0.812500
vt 0.937500 0.812500
vt 0.937500 0.312500
vt 0.906250 0.750000
vt 0.875000 0.375000
vt 0.875000 0.875000
vt 0.906250 0.312500
vt 0.875000 0.750000
vt 0.875000 0.250000
vt 0.906250 0.687500
vt 0.875000 0.625000
vt 0.875000 0.125000
vt 0.906250 0.500000
vt 0.875000 0.562500
vt 0.875000 0.937500
vt 0.890625 1.000000
vt 0.890625 0.000000
vt 0.875000 0.062500
vt 0.875000 0.437500
vt 0.843750 0.125000
vt 0.875000 0.187500
vt 0.843750 0.625000
vt 0.843750 0.062500
vt 0.875000 0.500000
vt 0.843750 0.562500
vt 0.843750 0.937500
vt 0.859375 1.000000
vt 0.859375 0.000000
vt 0.843750 0.437500
vt 0.843750 0.375000
vt 0.875000 0.812500
vt 0.843750 0.875000
vt 0.875000 0.312500
vt 0.843750 0.750000
vt 0.843750 0.250000
vt 0.875000 0.687500
vt 0.843750 0.812500
vt 0.812500 0.875000
vt 0.843750 0.312500
vt 0.812500 0.375000
vt 0.812500 0.750000
vt 0.812500 0.250000
vt 0.843750 0.687500
vt 0.843750 0.187500
vt 0.812500 0.625000
vt 0.812500 0.125000
vt 0.812500 0.062500
vt 0.843750 0.500000
vt 0.812500 0.562500
vt 0.812500 0.937500
vt 0.828125 1.000000
vt 0.828125 0.000000
vt 0.812500 0.437500
vt 0.781250 0.625000
vt 0.781250 0.125000
vt 0.812500 0.500000
vt 0.781250 0.562500
vt 0.781250 0.937500
vt 0.796875 1.000000
vt 0.796875 0.000000
vt 0.781250 0.062500
vt 0.781250 0.437500
vt 0.781250 0.875000
vt 0.781250 0.375000
vt 0.812500 0.812500
vt 0.812500 0.312500
vt 0.781250 0.750000
vt 0.781250 0.250000
vt 0.812500 0.687500
vt 0.812500 0.187500
vt 0.781250 0.312500
vt 0.781250 0.812500
vt 0.781250 0.687500
vt 0.781250 0.187500
vt 0.781250 0.500000
vt 0.765625 1.000000
vt 0.765625 0.000000
vt 0.000000 0.500000
vt 0.000000 0.312500
vt 0.000000 0.687500
s 0
usemtl Material.001
f 1/1/1 8/2/1 475/3/1
f 17/4/2 478/5/2 6/6/2
f 476/7/3 9/8/3 1/1/3
f 18/9/4 6/6/4 479/10/4
f 11/11/5 476/7/5 2/12/5
f 19/13/6 479/10/6 480/14/6
f 477/15/7 11/11/7 2/12/7
f 20/16/8 480/14/8 481/17/8
f 3/18/9 12/19/9 477/15/9
f 21/20/10 481/17/10 482/21/10
f 14/22/11 3/18/11 4/23/11
f 474/24/12 7/25/12 82/26/12
f 308/27/13 21/20/13 482/21/13
f 5/28/14 14/22/14 4/23/14
f 475/3/15 7/25/15 474/24/15
f 16/29/16 5/28/16 478/5/16
f 23/30/17 7/25/17 8/2/17
f 31/31/18 15/32/18 16/29/18
f 24/33/19 8/2/19 9/8/19
f 17/4/20 31/31/20 16/29/20
f 25/34/21 9/8/21 10/35/21
f 18/9/22 32/36/22 17/4/22
f 26/37/23 10/35/23 11/11/23
f 19/13/24 33/38/24 18/9/24
f 27/39/25 11/11/25 12/19/25
f 20/16/26 34/40/26 19/13/26
f 13/41/27 27/39/27 12/19/27
f 21/20/28 35/42/28 20/16/28
f 14/22/29 28/43/29 13/41/29
f 7/25/30 22/44/30 82/45/30
f 308/46/31 36/47/31 21/20/31
f 30/48/32 14/22/32 15/32/32
f 42/49/33 26/37/33 27/39/33
f 35/42/34 49/50/34 34/40/34
f 28/43/35 42/49/35 27/39/35
f 36/47/36 50/51/36 35/42/36
f 29/52/37 43/53/37 28/43/37
f 22/44/38 37/54/38 82/55/38
f 308/56/39 51/57/39 36/47/39
f 45/58/40 29/52/40 30/48/40
f 38/59/41 22/44/41 23/30/41
f 46/60/42 30/48/42 31/31/42
f 39/61/43 23/30/43 24/33/43
f 32/36/44 46/60/44 31/31/44
f 40/62/45 24/33/45 25/34/45
f 48/63/46 32/36/46 33/38/46
f 26/37/47 40/62/47 25/34/47
f 49/50/48 33/38/48 34/40/48
f 61/64/49 45/58/49 46/60/49
f 54/65/50 38/59/50 39/61/50
f 47/66/51 61/64/51 46/60/51
f 55/67/52 39/61/52 40/62/52
f 48/63/53 62/68/53 47/66/53
f 56/69/54 40/62/54 41/70/54
f 49/50/55 63/71/55 48/63/55
f 57/72/56 41/70/56 42/49/56
f 50/51/57 64/73/57 49/50/57
f 43/53/58 57/72/58 42/49/58
f 51/57/59 65/74/59 50/51/59
f 44/75/60 58/76/60 43/53/60
f 37/54/61 52/77/61 82/78/61
f 308/79/62 66/80/62 51/57/62
f 60/81/63 44/75/63 45/58/63
f 53/82/64 37/54/64 38/59/64
f 80/83/65 64/73/65 65/74/65
f 58/76/66 72/84/66 57/72/66
f 81/85/67 65/74/67 66/80/67
f 59/86/68 73/87/68 58/76/68
f 52/77/69 67/88/69 82/89/69
f 308/90/70 81/85/70 66/80/70
f 75/91/71 59/86/71 60/81/71
f 53/82/72 67/88/72 52/77/72
f 76/92/73 60/81/73 61/64/73
f 54/65/74 68/93/74 53/82/74
f 62/68/75 76/92/75 61/64/75
f 70/94/76 54/65/76 55/67/76
f 78/95/77 62/68/77 63/71/77
f 71/96/78 55/67/78 56/69/78
f 64/73/79 78/95/79 63/71/79
f 72/84/80 56/69/80 57/72/80
f 85/97/81 68/93/81 69/98/81
f 77/99/82 92/100/82 76/92/82
f 86/101/83 69/98/83 70/94/83
f 94/102/84 77/99/84 78/95/84
f 71/96/85 86/101/85 70/94/85
f 79/103/86 94/102/86 78/95/86
f 88/104/87 71/96/87 72/84/87
f 80/83/88 95/105/88 79/103/88
f 73/87/89 88/104/89 72/84/89
f 81/85/90 96/106/90 80/83/90
f 74/107/91 89/108/91 73/87/91
f 67/88/92 83/109/92 82/110/92
f 308/111/93 97/112/93 81/85/93
f 91/113/94 74/107/94 75/91/94
f 84/114/95 67/88/95 68/93/95
f 92/100/96 75/91/96 76/92/96
f 89/108/97 103/115/97 88/104/97
f 97/112/98 111/116/98 96/106/98
f 90/117/99 104/118/99 89/108/99
f 83/109/100 98/119/100 82/120/100
f 308/121/101 112/122/101 97/112/101
f 106/123/102 90/117/102 91/113/102
f 99/124/103 83/109/103 84/114/103
f 107/125/104 91/113/104 92/100/104
f 85/97/105 99/124/105 84/114/105
f 93/126/106 107/125/106 92/100/106
f 101/127/107 85/97/107 86/101/107
f 109/128/108 93/126/108 94/102/108
f 87/129/109 101/127/109 86/101/109
f 95/105/110 109/128/110 94/102/110
f 103/115/111 87/129/111 88/104/111
f 111/116/112 95/105/112 96/106/112
f 108/130/113 122/131/113 107/125/113
f 116/132/114 100/133/114 101/127/114
f 124/134/115 108/130/115 109/128/115
f 102/135/116 116/132/116 101/127/116
f 110/136/117 124/134/117 109/128/117
f 118/137/118 102/135/118 103/115/118
f 111/116/119 125/138/119 110/136/119
f 104/118/120 118/137/120 103/115/120
f 127/139/121 111/116/121 112/122/121
f 105/140/122 119/141/122 104/118/122
f 98/119/123 113/142/123 82/143/123
f 308/144/124 127/139/124 112/122/124
f 121/145/125 105/140/125 106/123/125
f 114/146/126 98/119/126 99/124/126
f 122/131/127 106/123/127 107/125/127
f 115/147/128 99/124/128 100/133/128
f 142/148/129 126/149/129 127/139/129
f 120/150/130 134/151/130 119/141/130
f 113/142/131 128/152/131 82/153/131
f 308/154/132 142/148/132 127/139/132
f 136/155/133 120/150/133 121/145/133
f 129/156/134 113/142/134 114/146/134
f 137/157/135 121/145/135 122/131/135
f 115/147/136 129/156/136 114/146/136
f 123/158/137 137/157/137 122/131/137
f 131/159/138 115/147/138 116/132/138
f 139/160/139 123/158/139 124/134/139
f 117/161/140 131/159/140 116/132/140
f 125/138/141 139/160/141 124/134/141
f 133/162/142 117/161/142 118/137/142
f 141/163/143 125/138/143 126/149/143
f 119/141/144 133/162/144 118/137/144
f 154/164/145 138/165/145 139/160/145
f 132/166/146 146/167/146 131/159/146
f 140/168/147 154/164/147 139/160/147
f 148/169/148 132/166/148 133/162/148
f 156/170/149 140/168/149 141/163/149
f 134/151/150 148/169/150 133/162/150
f 142/148/151 156/170/151 141/163/151
f 135/171/152 149/172/152 134/151/152
f 128/152/153 143/173/153 82/174/153
f 308/175/154 157/176/154 142/148/154
f 151/177/155 135/171/155 136/155/155
f 144/178/156 128/152/156 129/156/156
f 152/179/157 136/155/157 137/157/157
f 130/180/158 144/178/158 129/156/158
f 138/165/159 152/179/159 137/157/159
f 146/167/160 130/180/160 131/159/160
f 143/173/161 158/181/161 82/182/161
f 308/183/162 172/184/162 157/176/162
f 166/185/163 150/186/163 151/177/163
f 159/187/164 143/173/164 144/178/164
f 167/188/165 151/177/165 152/179/165
f 145/189/166 159/187/166 144/178/166
f 153/190/167 167/188/167 152/179/167
f 161/191/168 145/189/168 146/167/168
f 169/192/169 153/190/169 154/164/169
f 147/193/170 161/191/170 146/167/170
f 155/194/171 169/192/171 154/164/171
f 163/195/172 147/193/172 148/169/172
f 171/196/173 155/194/173 156/170/173
f 149/172/174 163/195/174 148/169/174
f 157/176/175 171/196/175 156/170/175
f 150/186/176 164/197/176 149/172/176
f 162/198/177 176/199/177 161/191/177
f 170/200/178 184/201/178 169/192/178
f 178/202/179 162/198/179 163/195/179
f 186/203/180 170/200/180 171/196/180
f 164/197/181 178/202/181 163/195/181
f 172/184/182 186/203/182 171/196/182
f 165/204/183 179/205/183 164/197/183
f 158/181/184 173/206/184 82/207/184
f 308/208/185 187/209/185 172/184/185
f 181/210/186 165/204/186 166/185/186
f 174/211/187 158/181/187 159/187/187
f 182/212/188 166/185/188 167/188/188
f 160/213/189 174/211/189 159/187/189
f 168/214/190 182/212/190 167/188/190
f 176/199/191 160/213/191 161/191/191
f 184/201/192 168/214/192 169/192/192
f 196/215/193 180/216/193 181/210/193
f 189/217/194 173/206/194 174/211/194
f 197/218/195 181/210/195 182/212/195
f 190/219/196 174/211/196 175/220/196
f 183/221/197 197/218/197 182/212/197
f 191/222/198 175/220/198 176/199/198
f 199/223/199 183/221/199 184/201/199
f 177/224/200 191/222/200 176/199/200
f 185/225/201 199/223/201 184/201/201
f 193/226/202 177/224/202 178/202/202
f 186/203/203 200/227/203 185/225/203
f 179/205/204 193/226/204 178/202/204
f 202/228/205 186/203/205 187/209/205
f 180/216/206 194/229/206 179/205/206
f 173/206/207 188/230/207 82/231/207
f 308/232/208 202/228/208 187/209/208
f 200/227/209 214/233/209 199/223/209
f 208/234/210 192/235/210 193/226/210
f 201/236/211 215/237/211 200/227/211
f 194/229/212 208/234/212 193/226/212
f 202/228/213 216/238/213 201/236/213
f 195/239/214 209/240/214 194/229/214
f 188/230/215 203/241/215 82/242/215
f 308/243/216 217/244/216 202/228/216
f 211/245/217 195/239/217 196/215/217
f 204/246/218 188/230/218 189/217/218
f 212/247/219 196/215/219 197/218/219
f 205/248/220 189/217/220 190/219/220
f 198/249/221 212/247/221 197/218/221
f 206/250/222 190/219/222 191/222/222
f 214/233/223 198/249/223 199/223/223
f 192/235/224 206/250/224 191/222/224
f 219/251/225 203/241/225 204/246/225
f 227/252/226 211/245/226 212/247/226
f 220/253/227 204/246/227 205/248/227
f 213/254/228 227/252/228 212/247/228
f 221/255/229 205/248/229 206/250/229
f 229/256/230 213/254/230 214/233/230
f 207/257/231 221/255/231 206/250/231
f 215/237/232 229/256/232 214/233/232
f 223/258/233 207/257/233 208/234/233
f 216/238/234 230/259/234 215/237/234
f 209/240/235 223/258/235 208/234/235
f 217/244/236 231/260/236 216/238/236
f 210/261/237 224/262/237 209/240/237
f 203/241/238 218/263/238 82/264/238
f 308/265/239 232/266/239 217/244/239
f 226/267/240 210/261/240 211/245/240
f 238/268/241 222/269/241 223/258/241
f 246/270/242 230/259/242 231/260/242
f 224/262/243 238/268/243 223/258/243
f 247/271/244 231/260/244 232/266/244
f 225/272/245 239/273/245 224/262/245
f 218/263/246 233/274/246 82/275/246
f 308/276/247 247/271/247 232/266/247
f 241/277/248 225/272/248 226/267/248
f 219/251/249 233/274/249 218/263/249
f 242/278/250 226/267/250 227/252/250
f 235/279/251 219/251/251 220/253/251
f 228/280/252 242/278/252 227/252/252
f 236/281/253 220/253/253 221/255/253
f 244/282/254 228/280/254 229/256/254
f 222/269/255 236/281/255 221/255/255
f 230/259/256 244/282/256 229/256/256
f 257/283/257 241/277/257 242/278/257
f 235/279/258 249/284/258 234/285/258
f 243/286/259 257/283/259 242/278/259
f 251/287/260 235/279/260 236/281/260
f 259/288/261 243/286/261 244/282/261
f 237/289/262 251/287/262 236/281/262
f 245/290/263 259/288/263 244/282/263
f 253/291/264 237/289/264 238/268/264
f 261/292/265 245/290/265 246/270/265
f 239/273/266 253/291/266 238/268/266
f 262/293/267 246/270/267 247/271/267
f 240/294/268 254/295/268 239/273/268
f 233/274/269 248/296/269 82/297/269
f 308/298/270 262/293/270 247/271/270
f 256/299/271 240/294/271 241/277/271
f 249/284/272 233/274/272 234/285/272
f 261/292/273 275/300/273 260/301/273
f 254/295/274 268/302/274 253/291/274
f 277/303/275 261/292/275 262/293/275
f 255/304/276 269/305/276 254/295/276
f 248/296/277 263/306/277 82/307/277
f 308/308/278 277/303/278 262/293/278
f 271/309/279 255/304/279 256/299/279
f 249/284/280 263/306/280 248/296/280
f 272/310/281 256/299/281 257/283/281
f 265/311/282 249/284/282 250/312/282
f 258/313/283 272/310/283 257/283/283
f 266/314/284 250/312/284 251/287/284
f 274/315/285 258/313/285 259/288/285
f 252/316/286 266/314/286 251/287/286
f 260/301/287 274/315/287 259/288/287
f 268/302/288 252/316/288 253/291/288
f 273/317/289 287/318/289 272/310/289
f 281/319/290 265/311/290 266/314/290
f 289/320/291 273/317/291 274/315/291
f 267/321/292 281/319/292 266/314/292
f 275/300/293 289/320/293 274/315/293
f 283/322/294 267/321/294 268/302/294
f 291/323/295 275/300/295 276/324/295
f 269/305/296 283/322/296 268/302/296
f 292/325/297 276/324/297 277/303/297
f 270/326/298 284/327/298 269/305/298
f 263/306/299 278/328/299 82/329/299
f 308/330/300 292/325/300 277/303/300
f 286/331/301 270/326/301 271/309/301
f 279/332/302 263/306/302 264/333/302
f 287/318/303 271/309/303 272/310/303
f 265/311/304 279/332/304 264/333/304
f 292/325/305 306/334/305 291/323/305
f 285/335/306 299/336/306 284/327/306
f 278/328/307 293/337/307 82/338/307
f 308/339/308 307/340/308 292/325/308
f 301/341/309 285/335/309 286/331/309
f 294/342/310 278/328/310 279/332/310
f 302/343/311 286/331/311 287/318/311
f 295/344/312 279/332/312 280/345/312
f 288/346/313 302/343/313 287/318/313
f 296/347/314 280/345/314 281/319/314
f 304/348/315 288/346/315 289/320/315
f 282/349/316 296/347/316 281/319/316
f 290/350/317 304/348/317 289/320/317
f 298/351/318 282/349/318 283/322/318
f 306/334/319 290/350/319 291/323/319
f 284/327/320 298/351/320 283/322/320
f 312/352/321 295/344/321 296/347/321
f 320/353/322 303/354/322 304/348/322
f 297/355/323 312/352/323 296/347/323
f 305/356/324 320/353/324 304/348/324
f 314/357/325 297/355/325 298/351/325
f 322/358/326 305/356/326 306/334/326
f 299/336/327 314/357/327 298/351/327
f 307/340/328 322/358/328 306/334/328
f 300/359/329 315/360/329 299/336/329
f 293/337/330 309/361/330 82/362/330
f 308/363/331 323/364/331 307/340/331
f 317/365/332 300/359/332 301/341/332
f 310/366/333 293/337/333 294/342/333
f 318/367/334 301/341/334 302/343/334
f 295/344/335 310/366/335 294/342/335
f 303/354/336 318/367/336 302/343/336
f 316/368/337 330/369/337 315/360/337
f 309/361/338 324/370/338 82/371/338
f 308/372/339 338/373/339 323/364/339
f 332/374/340 316/368/340 317/365/340
f 325/375/341 309/361/341 310/366/341
f 333/376/342 317/365/342 318/367/342
f 311/377/343 325/375/343 310/366/343
f 319/378/344 333/376/344 318/367/344
f 327/379/345 311/377/345 312/352/345
f 335/380/346 319/378/346 320/353/346
f 313/381/347 327/379/347 312/352/347
f 321/382/348 335/380/348 320/353/348
f 329/383/349 313/381/349 314/357/349
f 337/384/350 321/382/350 322/358/350
f 315/360/351 329/383/351 314/357/351
f 323/364/352 337/384/352 322/358/352
f 350/385/353 334/386/353 335/380/353
f 328/387/354 342/388/354 327/379/354
f 336/389/355 350/385/355 335/380/355
f 344/390/356 328/387/356 329/383/356
f 352/391/357 336/389/357 337/384/357
f 330/369/358 344/390/358 329/383/358
f 338/373/359 352/391/359 337/384/359
f 331/392/360 345/393/360 330/369/360
f 324/370/361 339/394/361 82/395/361
f 308/396/362 353/397/362 338/373/362
f 347/398/363 331/392/363 332/374/363
f 340/399/364 324/370/364 325/375/364
f 348/400/365 332/374/365 333/376/365
f 326/401/366 340/399/366 325/375/366
f 334/386/367 348/400/367 333/376/367
f 342/388/368 326/401/368 327/379/368
f 339/394/369 354/402/369 82/403/369
f 308/404/370 368/405/370 353/397/370
f 362/406/371 346/407/371 347/398/371
f 355/408/372 339/394/372 340/399/372
f 363/409/373 347/398/373 348/400/373
f 356/410/374 340/399/374 341/411/374
f 349/412/375 363/409/375 348/400/375
f 357/413/376 341/411/376 342/388/376
f 365/414/377 349/412/377 350/385/377
f 343/415/378 357/413/378 342/388/378
f 351/416/379 365/414/379 350/385/379
f 359/417/380 343/415/380 344/390/380
f 352/391/381 366/418/381 351/416/381
f 345/393/382 359/417/382 344/390/382
f 353/397/383 367/419/383 352/391/383
f 346/407/384 360/420/384 345/393/384
f 358/421/385 372/422/385 357/423/385
f 366/424/386 380/425/386 365/426/386
f 374/427/387 358/421/387 359/428/387
f 382/429/388 366/424/388 367/430/388
f 360/431/389 374/427/389 359/428/389
f 368/432/390 382/429/390 367/430/390
f 361/433/391 375/434/391 360/431/391
f 354/435/392 369/436/392 82/437/392
f 308/438/393 383/439/393 368/432/393
f 377/440/394 361/433/394 362/441/394
f 370/442/395 354/435/395 355/443/395
f 378/444/396 362/441/396 363/445/396
f 356/446/397 370/442/397 355/443/397
f 364/447/398 378/444/398 363/445/398
f 372/422/399 356/446/399 357/423/399
f 380/425/400 364/447/400 365/426/400
f 392/448/401 376/449/401 377/440/401
f 370/442/402 384/450/402 369/436/402
f 393/451/403 377/440/403 378/444/403
f 371/452/404 385/453/404 370/442/404
f 379/454/405 393/451/405 378/444/405
f 387/455/406 371/452/406 372/422/406
f 395/456/407 379/454/407 380/425/407
f 373/457/408 387/455/408 372/422/408
f 381/458/409 395/456/409 380/425/409
f 389/459/410 373/457/410 374/427/410
f 397/460/411 381/458/411 382/429/411
f 375/434/412 389/459/412 374/427/412
f 398/461/413 382/429/413 383/439/413
f 376/449/414 390/462/414 375/434/414
f 369/436/415 384/450/415 82/463/415
f 308/464/416 398/461/416 383/439/416
f 396/465/417 410/466/417 395/456/417
f 404/467/418 388/468/418 389/459/418
f 397/460/419 411/469/419 396/465/419
f 390/462/420 404/467/420 389/459/420
f 398/461/421 412/470/421 397/460/421
f 391/471/422 405/472/422 390/462/422
f 384/450/423 399/473/423 82/474/423
f 308/475/424 413/476/424 398/461/424
f 407/477/425 391/471/425 392/448/425
f 400/478/426 384/450/426 385/453/426
f 408/479/427 392/448/427 393/451/427
f 401/480/428 385/453/428 386/481/428
f 394/482/429 408/479/429 393/451/429
f 402/483/430 386/481/430 387/455/430
f 410/466/431 394/482/431 395/456/431
f 388/468/432 402/483/432 387/455/432
f 423/484/433 407/477/433 408/479/433
f 401/480/434 415/485/434 400/478/434
f 409/486/435 423/484/435 408/479/435
f 417/487/436 401/480/436 402/483/436
f 425/488/437 409/486/437 410/466/437
f 403/489/438 417/487/438 402/483/438
f 411/469/439 425/488/439 410/466/439
f 419/490/440 403/489/440 404/467/440
f 427/491/441 411/469/441 412/470/441
f 405/472/442 419/490/442 404/467/442
f 413/476/443 427/491/443 412/470/443
f 406/492/444 420/493/444 405/472/444
f 399/473/445 414/494/445 82/495/445
f 308/496/446 428/497/446 413/476/446
f 422/498/447 406/492/447 407/477/447
f 415/485/448 399/473/448 400/478/448
f 442/499/449 426/500/449 427/491/449
f 420/493/450 434/501/450 419/490/450
f 443/502/451 427/491/451 428/497/451
f 421/503/452 435/504/452 420/493/452
f 414/494/453 429/505/453 82/506/453
f 308/507/454 443/502/454 428/497/454
f 437/508/455 421/503/455 422/498/455
f 415/485/456 429/505/456 414/494/456
f 438/509/457 422/498/457 423/484/457
f 416/510/458 430/511/458 415/485/458
f 424/512/459 438/509/459 423/484/459
f 432/513/460 416/510/460 417/487/460
f 440/514/461 424/512/461 425/488/461
f 418/515/462 432/513/462 417/487/462
f 426/500/463 440/514/463 425/488/463
f 434/501/464 418/515/464 419/490/464
f 431/516/465 445/517/465 430/511/465
f 439/518/466 453/519/466 438/509/466
f 447/520/467 431/516/467 432/513/467
f 455/521/468 439/518/468 440/514/468
f 433/522/469 447/520/469 432/513/469
f 441/523/470 455/521/470 440/514/470
f 449/524/471 433/522/471 434/501/471
f 457/525/472 441/523/472 442/499/472
f 435/504/473 449/524/473 434/501/473
f 458/526/474 442/499/474 443/502/474
f 436/527/475 450/528/475 435/504/475
f 429/505/476 444/529/476 82/530/476
f 308/531/477 458/526/477 443/502/477
f 452/532/478 436/527/478 437/508/478
f 445/517/479 429/505/479 430/511/479
f 453/519/480 437/508/480 438/509/480
f 450/528/481 464/533/481 449/524/481
f 458/526/482 472/534/482 457/525/482
f 451/535/483 465/536/483 450/528/483
f 444/529/484 459/537/484 82/538/484
f 308/539/485 473/540/485 458/526/485
f 467/541/486 451/535/486 452/532/486
f 460/542/487 444/529/487 445/517/487
f 468/543/488 452/532/488 453/519/488
f 446/544/489 460/542/489 445/517/489
f 454/545/490 468/543/490 453/519/490
f 462/546/491 446/544/491 447/520/491
f 470/547/492 454/545/492 455/521/492
f 448/548/493 462/546/493 447/520/493
f 456/549/494 470/547/494 455/521/494
f 464/533/495 448/548/495 449/524/495
f 472/534/496 456/549/496 457/525/496
f 6/6/497 468/543/497 469/550/497
f 462/546/498 1/1/498 461/551/498
f 479/10/499 469/550/499 470/547/499
f 463/552/500 476/7/500 462/546/500
f 471/553/501 479/10/501 470/547/501
f 464/533/502 2/12/502 463/552/502
f 481/17/503 471/553/503 472/534/503
f 465/536/504 477/15/504 464/533/504
f 482/21/505 472/534/505 473/540/505
f 466/554/506 3/18/506 465/536/506
f 459/537/507 474/24/507 82/555/507
f 308/556/508 482/21/508 473/540/508
f 5/28/509 466/554/509 467/541/509
f 460/542/510 474/24/510 459/537/510
f 478/5/511 467/541/511 468/543/511
f 461/551/512 475/3/512 460/542/512
f 1/1/1 9/8/1 8/2/1
f 17/4/2 16/29/2 478/5/2
f 476/7/3 10/35/3 9/8/3
f 18/9/4 17/4/4 6/6/4
f 11/11/5 10/35/5 476/7/5
f 19/13/6 18/9/6 479/10/6
f 477/15/7 12/19/7 11/11/7
f 20/16/8 19/13/8 480/14/8
f 3/18/9 13/41/9 12/19/9
f 21/20/10 20/16/10 481/17/10
f 14/22/513 13/41/513 3/18/513
f 5/28/514 15/32/514 14/22/514
f 475/3/15 8/2/15 7/25/15
f 16/29/16 15/32/16 5/28/16
f 23/30/17 22/44/17 7/25/17
f 31/31/18 30/48/18 15/32/18
f 24/33/19 23/30/19 8/2/19
f 17/4/20 32/36/20 31/31/20
f 25/34/21 24/33/21 9/8/21
f 18/9/22 33/38/22 32/36/22
f 26/37/23 25/34/23 10/35/23
f 19/13/24 34/40/24 33/38/24
f 27/39/25 26/37/25 11/11/25
f 20/16/26 35/42/26 34/40/26
f 13/41/27 28/43/27 27/39/27
f 21/20/28 36/47/28 35/42/28
f 14/22/515 29/52/515 28/43/515
f 30/48/516 29/52/516 14/22/516
f 42/49/33 41/70/33 26/37/33
f 35/42/34 50/51/34 49/50/34
f 28/43/35 43/53/35 42/49/35
f 36/47/36 51/57/36 50/51/36
f 29/52/37 44/75/37 43/53/37
f 45/58/40 44/75/40 29/52/40
f 38/59/41 37/54/41 22/44/41
f 46/60/42 45/58/42 30/48/42
f 39/61/43 38/59/43 23/30/43
f 32/36/44 47/66/44 46/60/44
f 40/62/45 39/61/45 24/33/45
f 48/63/46 47/66/46 32/36/46
f 26/37/47 41/70/47 40/62/47
f 49/50/48 48/63/48 33/38/48
f 61/64/49 60/81/49 45/58/49
f 54/65/50 53/82/50 38/59/50
f 47/66/51 62/68/51 61/64/51
f 55/67/52 54/65/52 39/61/52
f 48/63/53 63/71/53 62/68/53
f 56/69/54 55/67/54 40/62/54
f 49/50/55 64/73/55 63/71/55
f 57/72/56 56/69/56 41/70/56
f 50/51/57 65/74/57 64/73/57
f 43/53/58 58/76/58 57/72/58
f 51/57/59 66/80/59 65/74/59
f 44/75/60 59/86/60 58/76/60
f 60/81/63 59/86/63 44/75/63
f 53/82/64 52/77/64 37/54/64
f 80/83/65 79/103/65 64/73/65
f 58/76/66 73/87/66 72/84/66
f 81/85/67 80/83/67 65/74/67
f 59/86/68 74/107/68 73/87/68
f 75/91/71 74/107/71 59/86/71
f 53/82/72 68/93/72 67/88/72
f 76/92/73 75/91/73 60/81/73
f 54/65/74 69/98/74 68/93/74
f 62/68/75 77/99/75 76/92/75
f 70/94/76 69/98/76 54/65/76
f 78/95/77 77/99/77 62/68/77
f 71/96/78 70/94/78 55/67/78
f 64/73/79 79/103/79 78/95/79
f 72/84/80 71/96/80 56/69/80
f 85/97/517 84/114/517 68/93/517
f 77/99/82 93/126/82 92/100/82
f 86/101/83 85/97/83 69/98/83
f 94/102/84 93/126/84 77/99/84
f 71/96/85 87/129/85 86/101/85
f 79/103/86 95/105/86 94/102/86
f 88/104/87 87/129/87 71/96/87
f 80/83/518 96/106/518 95/105/518
f 73/87/89 89/108/89 88/104/89
f 81/85/90 97/112/90 96/106/90
f 74/107/91 90/117/91 89/108/91
f 91/113/94 90/117/94 74/107/94
f 84/114/95 83/109/95 67/88/95
f 92/100/96 91/113/96 75/91/96
f 89/108/97 104/118/97 103/115/97
f 97/112/98 112/122/98 111/116/98
f 90/117/99 105/140/99 104/118/99
f 106/123/102 105/140/102 90/117/102
f 99/124/103 98/119/103 83/109/103
f 107/125/104 106/123/104 91/113/104
f 85/97/105 100/133/105 99/124/105
f 93/126/106 108/130/106 107/125/106
f 101/127/107 100/133/107 85/97/107
f 109/128/108 108/130/108 93/126/108
f 87/129/109 102/135/109 101/127/109
f 95/105/110 110/136/110 109/128/110
f 103/115/111 102/135/111 87/129/111
f 111/116/112 110/136/112 95/105/112
f 108/130/113 123/158/113 122/131/113
f 116/132/114 115/147/114 100/133/114
f 124/134/115 123/158/115 108/130/115
f 102/135/116 117/161/116 116/132/116
f 110/136/117 125/138/117 124/134/117
f 118/137/118 117/161/118 102/135/118
f 111/116/119 126/149/119 125/138/119
f 104/118/120 119/141/120 118/137/120
f 127/139/121 126/149/121 111/116/121
f 105/140/122 120/150/122 119/141/122
f 121/145/125 120/150/125 105/140/125
f 114/146/126 113/142/126 98/119/126
f 122/131/127 121/145/127 106/123/127
f 115/147/128 114/146/128 99/124/128
f 142/148/129 141/163/129 126/149/129
f 120/150/130 135/171/130 134/151/130
f 136/155/133 135/171/133 120/150/133
f 129/156/134 128/152/134 113/142/134
f 137/157/135 136/155/135 121/145/135
f 115/147/136 130/180/136 129/156/136
f 123/158/137 138/165/137 137/157/137
f 131/159/138 130/180/138 115/147/138
f 139/160/139 138/165/139 123/158/139
f 117/161/140 132/166/140 131/159/140
f 125/138/141 140/168/141 139/160/141
f 133/162/142 132/166/142 117/161/142
f 141/163/143 140/168/143 125/138/143
f 119/141/144 134/151/144 133/162/144
f 154/164/145 153/190/145 138/165/145
f 132/166/146 147/193/146 146/167/146
f 140/168/147 155/194/147 154/164/147
f 148/169/148 147/193/148 132/166/148
f 156/170/149 155/194/149 140/168/149
f 134/151/150 149/172/150 148/169/150
f 142/148/151 157/176/151 156/170/151
f 135/171/152 150/186/152 149/172/152
f 151/177/155 150/186/155 135/171/155
f 144/178/156 143/173/156 128/152/156
f 152/179/157 151/177/157 136/155/157
f 130/180/158 145/189/158 144/178/158
f 138/165/159 153/190/159 152/179/159
f 146/167/160 145/189/160 130/180/160
f 166/185/519 165/204/519 150/186/519
f 159/187/164 158/181/164 143/173/164
f 167/188/165 166/185/165 151/177/165
f 145/189/520 160/213/520 159/187/520
f 153/190/167 168/214/167 167/188/167
f 161/191/168 160/213/168 145/189/168
f 169/192/169 168/214/169 153/190/169
f 147/193/170 162/198/170 161/191/170
f 155/194/171 170/200/171 169/192/171
f 163/195/172 162/198/172 147/193/172
f 171/196/521 170/200/521 155/194/521
f 149/172/174 164/197/174 163/195/174
f 157/176/175 172/184/175 171/196/175
f 150/186/522 165/204/522 164/197/522
f 162/198/177 177/224/177 176/199/177
f 170/200/178 185/225/178 184/201/178
f 178/202/179 177/224/179 162/198/179
f 186/203/180 185/225/180 170/200/180
f 164/197/181 179/205/181 178/202/181
f 172/184/182 187/209/182 186/203/182
f 165/204/183 180/216/183 179/205/183
f 181/210/186 180/216/186 165/204/186
f 174/211/187 173/206/187 158/181/187
f 182/212/188 181/210/188 166/185/188
f 160/213/189 175/220/189 174/211/189
f 168/214/190 183/221/190 182/212/190
f 176/199/191 175/220/191 160/213/191
f 184/201/192 183/221/192 168/214/192
f 196/215/193 195/239/193 180/216/193
f 189/217/194 188/230/194 173/206/194
f 197/218/195 196/215/195 181/210/195
f 190/219/196 189/217/196 174/211/196
f 183/221/197 198/249/197 197/218/197
f 191/222/198 190/219/198 175/220/198
f 199/223/199 198/249/199 183/221/199
f 177/224/200 192/235/200 191/222/200
f 185/225/201 200/227/201 199/223/201
f 193/226/202 192/235/202 177/224/202
f 186/203/203 201/236/203 200/227/203
f 179/205/204 194/229/204 193/226/204
f 202/228/205 201/236/205 186/203/205
f 180/216/206 195/239/206 194/229/206
f 200/227/209 215/237/209 214/233/209
f 208/234/210 207/257/210 192/235/210
f 201/236/523 216/238/523 215/237/523
f 194/229/212 209/240/212 208/234/212
f 202/228/213 217/244/213 216/238/213
f 195/239/214 210/261/214 209/240/214
f 211/245/217 210/261/217 195/239/217
f 204/246/218 203/241/218 188/230/218
f 212/247/219 211/245/219 196/215/219
f 205/248/524 204/246/524 189/217/524
f 198/249/221 213/254/221 212/247/221
f 206/250/222 205/248/222 190/219/222
f 214/233/223 213/254/223 198/249/223
f 192/235/224 207/257/224 206/250/224
f 219/251/225 218/263/225 203/241/225
f 227/252/226 226/267/226 211/245/226
f 220/253/227 219/251/227 204/246/227
f 213/254/228 228/280/228 227/252/228
f 221/255/229 220/253/229 205/248/229
f 229/256/230 228/280/230 213/254/230
f 207/257/231 222/269/231 221/255/231
f 215/237/232 230/259/232 229/256/232
f 223/258/233 222/269/233 207/257/233
f 216/238/234 231/260/234 230/259/234
f 209/240/235 224/262/235 223/258/235
f 217/244/236 232/266/236 231/260/236
f 210/261/237 225/272/237 224/262/237
f 226/267/240 225/272/240 210/261/240
f 238/268/241 237/289/241 222/269/241
f 246/270/242 245/290/242 230/259/242
f 224/262/243 239/273/243 238/268/243
f 247/271/244 246/270/244 231/260/244
f 225/272/245 240/294/245 239/273/245
f 241/277/248 240/294/248 225/272/248
f 219/251/249 234/285/249 233/274/249
f 242/278/250 241/277/250 226/267/250
f 235/279/251 234/285/251 219/251/251
f 228/280/252 243/286/252 242/278/252
f 236/281/253 235/279/253 220/253/253
f 244/282/254 243/286/254 228/280/254
f 222/269/255 237/289/255 236/281/255
f 230/259/256 245/290/256 244/282/256
f 257/283/257 256/299/257 241/277/257
f 235/279/258 250/312/258 249/284/258
f 243/286/259 258/313/259 257/283/259
f 251/287/260 250/312/260 235/279/260
f 259/288/261 258/313/261 243/286/261
f 237/289/262 252/316/262 251/287/262
f 245/290/263 260/301/263 259/288/263
f 253/291/264 252/316/264 237/289/264
f 261/292/265 260/301/265 245/290/265
f 239/273/266 254/295/266 253/291/266
f 262/293/267 261/292/267 246/270/267
f 240/294/525 255/304/525 254/295/525
f 256/299/526 255/304/526 240/294/526
f 249/284/272 248/296/272 233/274/272
f 261/292/273 276/324/273 275/300/273
f 254/295/274 269/305/274 268/302/274
f 277/303/275 276/324/275 261/292/275
f 255/304/276 270/326/276 269/305/276
f 271/309/279 270/326/279 255/304/279
f 249/284/280 264/333/280 263/306/280
f 272/310/281 271/309/281 256/299/281
f 265/311/282 264/333/282 249/284/282
f 258/313/283 273/317/283 272/310/283
f 266/314/284 265/311/284 250/312/284
f 274/315/285 273/317/285 258/313/285
f 252/316/286 267/321/286 266/314/286
f 260/301/287 275/300/287 274/315/287
f 268/302/288 267/321/288 252/316/288
f 273/317/289 288/346/289 287/318/289
f 281/319/290 280/345/290 265/311/290
f 289/320/291 288/346/291 273/317/291
f 267/321/292 282/349/292 281/319/292
f 275/300/293 290/350/293 289/320/293
f 283/322/294 282/349/294 267/321/294
f 291/323/295 290/350/295 275/300/295
f 269/305/296 284/327/296 283/322/296
f 292/325/297 291/323/297 276/324/297
f 270/326/298 285/335/298 284/327/298
f 286/331/301 285/335/301 270/326/301
f 279/332/302 278/328/302 263/306/302
f 287/318/303 286/331/303 271/309/303
f 265/311/304 280/345/304 279/332/304
f 292/325/305 307/340/305 306/334/305
f 285/335/306 300/359/306 299/336/306
f 301/341/309 300/359/309 285/335/309
f 294/342/310 293/337/310 278/328/310
f 302/343/311 301/341/311 286/331/311
f 295/344/312 294/342/312 279/332/312
f 288/346/313 303/354/313 302/343/313
f 296/347/314 295/344/314 280/345/314
f 304/348/315 303/354/315 288/346/315
f 282/349/316 297/355/316 296/347/316
f 290/350/317 305/356/317 304/348/317
f 298/351/318 297/355/318 282/349/318
f 306/334/319 305/356/319 290/350/319
f 284/327/320 299/336/320 298/351/320
f 312/352/321 311/377/321 295/344/321
f 320/353/322 319/378/322 303/354/322
f 297/355/323 313/381/323 312/352/323
f 305/356/324 321/382/324 320/353/324
f 314/357/325 313/381/325 297/355/325
f 322/358/326 321/382/326 305/356/326
f 299/336/327 315/360/327 314/357/327
f 307/340/328 323/364/328 322/358/328
f 300/359/329 316/368/329 315/360/329
f 317/365/332 316/368/332 300/359/332
f 310/366/333 309/361/333 293/337/333
f 318/367/334 317/365/334 301/341/334
f 295/344/335 311/377/335 310/366/335
f 303/354/336 319/378/336 318/367/336
f 316/368/337 331/392/337 330/369/337
f 332/374/340 331/392/340 316/368/340
f 325/375/341 324/370/341 309/361/341
f 333/376/342 332/374/342 317/365/342
f 311/377/527 326/401/527 325/375/527
f 319/378/344 334/386/344 333/376/344
f 327/379/345 326/401/345 311/377/345
f 335/380/346 334/386/346 319/378/346
f 313/381/347 328/387/347 327/379/347
f 321/382/348 336/389/348 335/380/348
f 329/383/349 328/387/349 313/381/349
f 337/384/528 336/389/528 321/382/528
f 315/360/351 330/369/351 329/383/351
f 323/364/352 338/373/352 337/384/352
f 350/385/353 349/412/353 334/386/353
f 328/387/354 343/415/354 342/388/354
f 336/389/355 351/416/355 350/385/355
f 344/390/356 343/415/356 328/387/356
f 352/391/357 351/416/357 336/389/357
f 330/369/358 345/393/358 344/390/358
f 338/373/359 353/397/359 352/391/359
f 331/392/360 346/407/360 345/393/360
f 347/398/363 346/407/363 331/392/363
f 340/399/364 339/394/364 324/370/364
f 348/400/365 347/398/365 332/374/365
f 326/401/366 341/411/366 340/399/366
f 334/386/367 349/412/367 348/400/367
f 342/388/368 341/411/368 326/401/368
f 362/406/371 361/557/371 346/407/371
f 355/408/372 354/402/372 339/394/372
f 363/409/373 362/406/373 347/398/373
f 356/410/374 355/408/374 340/399/374
f 349/412/375 364/558/375 363/409/375
f 357/413/376 356/410/376 341/411/376
f 365/414/377 364/558/377 349/412/377
f 343/415/378 358/559/378 357/413/378
f 351/416/379 366/418/379 365/414/379
f 359/417/380 358/559/380 343/415/380
f 352/391/381 367/419/381 366/418/381
f 345/393/382 360/420/382 359/417/382
f 353/397/383 368/405/383 367/419/383
f 346/407/384 361/557/384 360/420/384
f 358/421/385 373/457/385 372/422/385
f 366/424/386 381/458/386 380/425/386
f 374/427/387 373/457/387 358/421/387
f 382/429/388 381/458/388 366/424/388
f 360/431/389 375/434/389 374/427/389
f 368/432/390 383/439/390 382/429/390
f 361/433/391 376/449/391 375/434/391
f 377/440/394 376/449/394 361/433/394
f 370/442/395 369/436/395 354/435/395
f 378/444/396 377/440/396 362/441/396
f 356/446/397 371/452/397 370/442/397
f 364/447/398 379/454/398 378/444/398
f 372/422/399 371/452/399 356/446/399
f 380/425/400 379/454/400 364/447/400
f 392/448/401 391/471/401 376/449/401
f 370/442/402 385/453/402 384/450/402
f 393/451/403 392/448/403 377/440/403
f 371/452/404 386/481/404 385/453/404
f 379/454/405 394/482/405 393/451/405
f 387/455/406 386/481/406 371/452/406
f 395/456/407 394/482/407 379/454/407
f 373/457/408 388/468/408 387/455/408
f 381/458/409 396/465/409 395/456/409
f 389/459/410 388/468/410 373/457/410
f 397/460/411 396/465/411 381/458/411
f 375/434/412 390/462/412 389/459/412
f 398/461/413 397/460/413 382/429/413
f 376/449/414 391/471/414 390/462/414
f 396/465/417 411/469/417 410/466/417
f 404/467/418 403/489/418 388/468/418
f 397/460/419 412/470/419 411/469/419
f 390/462/420 405/472/420 404/467/420
f 398/461/421 413/476/421 412/470/421
f 391/471/422 406/492/422 405/472/422
f 407/477/425 406/492/425 391/471/425
f 400/478/426 399/473/426 384/450/426
f 408/479/427 407/477/427 392/448/427
f 401/480/428 400/478/428 385/453/428
f 394/482/429 409/486/429 408/479/429
f 402/483/430 401/480/430 386/481/430
f 410/466/431 409/486/431 394/482/431
f 388/468/432 403/489/432 402/483/432
f 423/484/433 422/498/433 407/477/433
f 401/480/434 416/510/434 415/485/434
f 409/486/435 424/512/435 423/484/435
f 417/487/436 416/510/436 401/480/436
f 425/488/437 424/512/437 409/486/437
f 403/489/438 418/515/438 417/487/438
f 411/469/439 426/500/439 425/488/439
f 419/490/440 418/515/440 403/489/440
f 427/491/441 426/500/441 411/469/441
f 405/472/442 420/493/442 419/490/442
f 413/476/443 428/497/443 427/491/443
f 406/492/444 421/503/444 420/493/444
f 422/498/447 421/503/447 406/492/447
f 415/485/448 414/494/448 399/473/448
f 442/499/449 441/523/449 426/500/449
f 420/493/450 435/504/450 434/501/450
f 443/502/451 442/499/451 427/491/451
f 421/503/452 436/527/452 435/504/452
f 437/508/455 436/527/455 421/503/455
f 415/485/456 430/511/456 429/505/456
f 438/509/457 437/508/457 422/498/457
f 416/510/458 431/516/458 430/511/458
f 424/512/459 439/518/459 438/509/459
f 432/513/460 431/516/460 416/510/460
f 440/514/461 439/518/461 424/512/461
f 418/515/462 433/522/462 432/513/462
f 426/500/463 441/523/463 440/514/463
f 434/501/464 433/522/464 418/515/464
f 431/516/465 446/544/465 445/517/465
f 439/518/466 454/545/466 453/519/466
f 447/520/467 446/544/467 431/516/467
f 455/521/468 454/545/468 439/518/468
f 433/522/469 448/548/469 447/520/469
f 441/523/470 456/549/470 455/521/470
f 449/524/471 448/548/471 433/522/471
f 457/525/472 456/549/472 441/523/472
f 435/504/473 450/528/473 449/524/473
f 458/526/474 457/525/474 442/499/474
f 436/527/475 451/535/475 450/528/475
f 452/532/478 451/535/478 436/527/478
f 445/517/479 444/529/479 429/505/479
f 453/519/480 452/532/480 437/508/480
f 450/528/481 465/536/481 464/533/481
f 458/526/482 473/540/482 472/534/482
f 451/535/483 466/554/483 465/536/483
f 467/541/486 466/554/486 451/535/486
f 460/542/487 459/537/487 444/529/487
f 468/543/488 467/541/488 452/532/488
f 446/544/489 461/551/489 460/542/489
f 454/545/490 469/550/490 468/543/490
f 462/546/491 461/551/491 446/544/491
f 470/547/492 469/550/492 454/545/492
f 448/548/493 463/552/493 462/546/493
f 456/549/494 471/553/494 470/547/494
f 464/533/495 463/552/495 448/548/495
f 472/534/496 471/553/496 456/549/496
f 6/6/497 478/5/497 468/543/497
f 462/546/498 476/7/498 1/1/498
f 479/10/499 6/6/499 469/550/499
f 463/552/500 2/12/500 476/7/500
f 471/553/501 480/14/501 479/10/501
f 464/533/502 477/15/502 2/12/502
f 481/17/503 480/14/503 471/553/503
f 465/536/504 3/18/504 477/15/504
f 482/21/505 481/17/505 472/534/505
f 466/554/529 4/23/529 3/18/529
f 5/28/530 4/23/530 466/554/530
f 460/542/510 475/3/510 474/24/510
f 478/5/511 5/28/511 467/541/511
f 461/551/512 1/1/512 475/3/512
